<?xml version="1.0" encoding="utf-8"?>
<!-- Generator: Adobe Illustrator 27.0.0, SVG Export Plug-In . SVG Version: 6.00 Build 0)  -->
<svg version="1.1" id="Layer_1" xmlns="http://www.w3.org/2000/svg" xmlns:xlink="http://www.w3.org/1999/xlink" x="0px" y="0px"
	 viewBox="0 0 293 60" style="enable-background:new 0 0 293 60;" xml:space="preserve">
<g id="Symbols">
	<g id="Header-Experiment-Copy" transform="translate(-70.000000, -69.000000)">
		<g id="dva-logo" transform="translate(70.000000, 69.000000)">
			<path id="Shape" d="M97,26.5h-4.1l-0.5,1.1c-0.1,0.3-0.3,0.6-0.3,0.9c0,0.3,0.1,0.6,0.4,0.8c0.4,0.1,0.8,0.2,1.1,0.2v0.3h-3.9
				v-0.3c0.4-0.1,0.8-0.3,1-0.5c0.4-0.6,0.8-1.1,1-1.8l4.2-9.3h0.2l4.2,9.6c0.3,0.6,0.6,1.2,1,1.7c0.3,0.2,0.5,0.3,0.8,0.3v0.3h-5.7
				v-0.3h0.3c0.3,0,0.7-0.1,0.9-0.2c0.1-0.1,0.2-0.3,0.2-0.4c0-0.1,0-0.2-0.1-0.3c-0.1-0.2-0.1-0.4-0.3-0.6L97,26.5z M96.8,25.9
				l-1.8-4l-1.8,4H96.8z"/>
			<path id="Shape_00000165933323407440240320000005447395571565227188_" d="M110,21.7v6.3c-0.1,0.4,0,0.8,0.2,1.1
				c0.2,0.2,0.4,0.3,0.7,0.3v0.3h-3.3v-1.1c-0.3,0.4-0.7,0.8-1.1,1c-0.4,0.2-0.8,0.3-1.3,0.3c-0.4,0-0.9-0.1-1.2-0.4
				c-0.3-0.3-0.6-0.6-0.7-0.9c-0.1-0.6-0.2-1.3-0.2-2v-3.2c0.1-0.4,0-0.8-0.2-1.1c-0.2-0.2-0.4-0.3-0.7-0.3v-0.3h3.3v5.5
				c0,0.4,0,0.8,0.1,1.1c0.1,0.1,0.1,0.3,0.3,0.4c0.1,0.1,0.3,0.1,0.4,0.1c0.2,0,0.4-0.1,0.6-0.2c0.3-0.3,0.6-0.6,0.8-0.9v-4.4
				c0.1-0.4,0-0.8-0.2-1.1c-0.2-0.2-0.4-0.3-0.7-0.3v-0.3H110z"/>
			<path id="Shape_00000060719861312353915960000003689897662593691012_" d="M116.2,21.5l0.1,2.8H116c-0.3-0.6-0.6-1.2-1.1-1.7
				c-0.3-0.3-0.7-0.4-1.1-0.4c-0.3,0-0.4,0.1-0.6,0.3c-0.2,0.1-0.3,0.3-0.3,0.6c0,0.2,0.1,0.3,0.2,0.4c0.4,0.4,1,0.9,1.5,1.2
				c0.6,0.4,1.3,0.9,1.8,1.5c0.3,0.4,0.4,0.9,0.4,1.3c0,0.4-0.1,0.9-0.3,1.3c-0.2,0.4-0.6,0.8-0.9,1c-0.4,0.3-0.9,0.4-1.3,0.3
				c-0.5,0-1.1-0.1-1.5-0.4c-0.1-0.1-0.3-0.1-0.4-0.1c-0.2,0-0.4,0.1-0.5,0.4h-0.3l-0.1-2.9h0.3c0.2,0.6,0.6,1.3,1.1,1.7
				c0.3,0.3,0.8,0.5,1.3,0.6c0.3,0,0.5-0.1,0.7-0.3c0.2-0.2,0.3-0.4,0.3-0.6s-0.1-0.5-0.3-0.7c-0.4-0.3-0.8-0.6-1.1-0.9
				c-0.6-0.4-1.2-0.9-1.7-1.4c-0.4-0.4-0.6-1-0.6-1.6c0-0.6,0.3-1.2,0.6-1.7c0.4-0.5,1.1-0.8,1.8-0.8c0.4,0,0.9,0.1,1.3,0.3
				c0.1,0.1,0.3,0.1,0.4,0.1c0.1,0,0.2,0,0.3-0.1c0.1-0.1,0.2-0.3,0.3-0.4L116.2,21.5z"/>
			<path id="Shape_00000108295404647149733840000011147330369016276670_" d="M120.4,18.8v3h1.9v0.8h-1.9v5c0,0.3,0,0.6,0.1,0.9
				c0.1,0.1,0.1,0.3,0.3,0.3c0.1,0.1,0.2,0.1,0.3,0.1c0.4,0,0.8-0.3,1.1-0.8l0.3,0.2c-0.3,1-1.3,1.6-2.3,1.6c-0.4,0-0.9-0.1-1.3-0.4
				c-0.3-0.3-0.6-0.6-0.7-0.9c-0.1-0.5-0.1-1.1-0.1-1.6v-4.4h-1.1v-0.3c0.7-0.4,1.3-1,1.8-1.6c0.5-0.6,0.9-1.2,1.3-1.9L120.4,18.8z"
				/>
			<path id="Shape_00000060709853937841666280000004932889951208511157_" d="M125.5,21.7v1.8c0.4-0.6,0.8-1.2,1.4-1.6
				c0.3-0.3,0.8-0.4,1.2-0.4c0.3,0,0.6,0.1,0.8,0.3c0.2,0.3,0.3,0.5,0.3,0.8c0,0.3-0.1,0.6-0.3,0.9c-0.2,0.2-0.4,0.3-0.7,0.3
				c-0.3,0-0.6-0.1-0.8-0.3c-0.1-0.1-0.3-0.3-0.4-0.3c-0.1-0.1-0.1-0.1-0.2-0.1c-0.2,0-0.3,0.1-0.5,0.2c-0.3,0.3-0.4,0.5-0.6,0.8
				c-0.2,0.6-0.3,1.2-0.3,1.8v2.3c0,0.2,0,0.4,0.1,0.6c0.1,0.1,0.2,0.3,0.3,0.3c0.2,0.1,0.4,0.1,0.7,0.1v0.4h-4.4v-0.3
				c0.3,0,0.5-0.1,0.7-0.3c0.2-0.4,0.3-0.9,0.2-1.3v-4.5c0-0.3,0-0.6-0.1-0.9c-0.1-0.1-0.1-0.3-0.3-0.4c-0.2-0.1-0.4-0.1-0.6-0.1
				v-0.3L125.5,21.7z"/>
			<path id="Shape_00000103248270445381202950000016473901542561951375_" d="M133.6,28.6c-0.7,0.8-1.6,1.2-2.7,1.3
				c-0.4,0-0.8-0.1-1.1-0.4c-0.3-0.3-0.4-0.7-0.4-1.1c0-0.6,0.3-1.3,0.8-1.6c1.1-0.8,2.2-1.5,3.5-2V24c0-0.4,0-0.8-0.1-1.1
				c-0.1-0.2-0.2-0.3-0.4-0.4s-0.4-0.2-0.6-0.2c-0.3,0-0.6,0.1-0.9,0.3c-0.1,0.1-0.2,0.2-0.3,0.4c0,0.2,0.1,0.3,0.3,0.4
				c0.2,0.2,0.3,0.4,0.3,0.7s-0.1,0.5-0.3,0.7c-0.3,0.2-0.5,0.3-0.8,0.3c-0.3,0-0.6-0.1-0.9-0.3c-0.3-0.2-0.4-0.4-0.4-0.8
				c0-0.4,0.2-0.9,0.5-1.2c0.4-0.4,0.8-0.7,1.4-0.9s1.2-0.3,1.8-0.3c0.6-0.1,1.3,0.1,1.8,0.5c0.4,0.3,0.7,0.6,0.9,1.1
				c0.1,0.6,0.1,1.1,0.1,1.6v3.2c0,0.3,0,0.4,0.1,0.7c0,0.1,0.1,0.1,0.1,0.2c0.1,0.1,0.1,0.1,0.2,0.1c0.1,0,0.3-0.1,0.4-0.3l0.3,0.2
				c-0.3,0.4-0.6,0.7-0.9,0.9c-0.3,0.2-0.7,0.3-1.1,0.3c-0.4,0-0.8-0.1-1.1-0.3C133.7,29.3,133.6,29,133.6,28.6z M133.6,28v-2.7
				c-0.6,0.3-1.1,0.8-1.6,1.3c-0.2,0.3-0.3,0.6-0.3,0.9c0,0.3,0.1,0.5,0.3,0.7c0.2,0.2,0.4,0.3,0.6,0.3
				C133,28.4,133.3,28.3,133.6,28z"/>
			<path id="Shape_00000006683676276938857060000004775127864371560589_" d="M140.2,18.1v10c-0.1,0.4,0,0.8,0.2,1.1
				c0.2,0.2,0.5,0.3,0.8,0.3v0.4h-4.4v-0.3c0.3,0,0.6-0.1,0.8-0.3c0.1-0.3,0.2-0.7,0.2-1.1v-8.3c0.1-0.4,0-0.8-0.2-1.1
				c-0.2-0.2-0.5-0.3-0.8-0.3v-0.3L140.2,18.1L140.2,18.1L140.2,18.1z"/>
			<path id="Shape_00000072269282661955947670000012428345567060125073_" d="M144.2,21.7v6.4c-0.1,0.4,0,0.8,0.2,1.1
				c0.2,0.2,0.5,0.3,0.8,0.3v0.4h-4.4v-0.3c0.3,0,0.6-0.1,0.8-0.3c0.1-0.3,0.2-0.7,0.2-1.1v-4.7c0.1-0.4,0-0.8-0.2-1.1
				c-0.2-0.2-0.5-0.3-0.8-0.3v-0.3H144.2z M143,17.8c0.8,0,1.3,0.6,1.3,1.3s-0.6,1.3-1.3,1.3s-1.3-0.6-1.3-1.3
				c0-0.4,0.1-0.7,0.4-0.9C142.3,18,142.6,17.8,143,17.8z"/>
			<path id="Shape_00000049218087581169245680000003014879680827629218_" d="M149.6,28.6c-0.7,0.8-1.6,1.2-2.7,1.3
				c-0.4,0-0.8-0.1-1.1-0.4c-0.3-0.3-0.4-0.7-0.4-1.1c0-0.6,0.3-1.3,0.8-1.6c1.1-0.8,2.2-1.5,3.5-2V24c0-0.4,0-0.8-0.1-1.1
				c-0.1-0.2-0.2-0.3-0.4-0.4c-0.2-0.1-0.4-0.2-0.6-0.2c-0.3,0-0.6,0.1-0.9,0.3c-0.1,0.1-0.2,0.2-0.3,0.4c0,0.2,0.1,0.3,0.3,0.4
				c0.2,0.2,0.3,0.4,0.3,0.7s-0.1,0.5-0.3,0.7c-0.3,0.2-0.5,0.3-0.8,0.3c-0.3,0-0.6-0.1-0.9-0.3c-0.3-0.2-0.4-0.4-0.4-0.8
				c0-0.4,0.2-0.9,0.5-1.2c0.4-0.4,0.8-0.7,1.4-0.9s1.2-0.3,1.8-0.3c0.6-0.1,1.3,0.1,1.8,0.5c0.4,0.3,0.7,0.6,0.9,1.1
				c0.1,0.6,0.1,1.1,0.1,1.6v3.2c0,0.3,0,0.4,0.1,0.7c0,0.1,0.1,0.1,0.1,0.2s0.1,0.1,0.2,0.1c0.1,0,0.3-0.1,0.4-0.3l0.3,0.2
				c-0.3,0.4-0.6,0.7-0.9,0.9c-0.3,0.2-0.7,0.3-1.1,0.3s-0.8-0.1-1.1-0.3C149.8,29.3,149.6,29,149.6,28.6z M149.6,28v-2.7
				c-0.6,0.3-1.1,0.8-1.6,1.3c-0.2,0.3-0.3,0.6-0.3,0.9c0,0.3,0.1,0.5,0.3,0.7c0.2,0.2,0.4,0.3,0.6,0.3
				C149,28.4,149.3,28.3,149.6,28z"/>
			<path id="Shape_00000120555872306643849640000008492248727339293860_" d="M156.4,21.7v1.1c0.3-0.4,0.8-0.7,1.2-0.9
				c0.4-0.2,0.8-0.3,1.2-0.3c0.4,0,0.9,0.1,1.3,0.4c0.3,0.3,0.6,0.6,0.7,1.1c0.1,0.6,0.2,1.3,0.1,1.9v3.2c-0.1,0.4,0,0.8,0.2,1.1
				c0.2,0.2,0.4,0.3,0.7,0.3v0.3h-4.1v-0.3c0.3,0,0.5-0.2,0.6-0.4c0.1-0.3,0.2-0.7,0.1-1.1v-3.6c0-0.4,0-0.8-0.1-1.3
				c-0.1-0.2-0.1-0.3-0.3-0.4c-0.1-0.1-0.3-0.1-0.4-0.1c-0.5,0-0.9,0.4-1.4,1.1v4.3c-0.1,0.4,0,0.8,0.2,1.1c0.1,0.2,0.4,0.3,0.6,0.3
				v0.3h-4.1v-0.3c0.3,0,0.6-0.1,0.7-0.3c0.1-0.4,0.2-0.8,0.1-1.1v-4.5c0.1-0.4,0-0.8-0.2-1.1c-0.2-0.2-0.4-0.3-0.7-0.3v-0.3H156.4z
				"/>
			<path id="Shape_00000035501846626146680400000008949124808894968218_" d="M177.2,17.8v4.1h-0.3c-0.3-1-0.9-1.9-1.8-2.6
				c-0.7-0.6-1.6-0.9-2.5-0.9c-0.8,0-1.6,0.3-2.2,0.8c-0.6,0.6-1.1,1.3-1.3,2.1c-0.3,0.9-0.4,1.8-0.3,2.7c0,1,0.1,2,0.4,3
				c0.2,0.8,0.6,1.5,1.3,1.9c0.6,0.4,1.4,0.6,2.1,0.6c0.3,0,0.6,0,0.9-0.1c0.3-0.1,0.6-0.1,0.9-0.3v-2.5c0-0.3,0-0.6-0.1-0.9
				c-0.1-0.2-0.3-0.3-0.4-0.4c-0.3-0.1-0.4-0.2-0.7-0.2h-0.3v-0.3h5.7v0.3c-0.3,0-0.6,0.1-0.9,0.2c-0.2,0.1-0.3,0.3-0.4,0.4
				c-0.1,0.3-0.1,0.6-0.1,0.8v2.5c-0.8,0.3-1.5,0.6-2.3,0.8c-0.8,0.2-1.7,0.3-2.5,0.3c-0.9,0-1.9-0.1-2.8-0.4
				c-0.7-0.3-1.4-0.7-2-1.2c-0.6-0.4-1-1-1.3-1.6c-0.4-0.8-0.6-1.8-0.6-2.7c-0.1-1.7,0.6-3.3,1.8-4.5c1.3-1.2,2.9-1.9,4.7-1.8
				c0.5,0,1.1,0.1,1.6,0.1c0.4,0.1,0.9,0.3,1.3,0.4c0.3,0.1,0.6,0.3,1,0.3c0.2,0,0.3-0.1,0.4-0.2c0.2-0.2,0.3-0.4,0.4-0.7H177.2z"/>
			<path id="Shape_00000018938428678331001270000015535764674216226951_" d="M182.2,21.5c0.7,0,1.4,0.2,2,0.6
				c0.6,0.4,1.1,0.9,1.4,1.6c0.3,0.7,0.5,1.5,0.5,2.2c0.1,1-0.3,2-0.9,2.8c-0.7,0.9-1.8,1.5-2.9,1.4c-1.1,0.1-2.1-0.4-2.8-1.3
				c-0.6-0.8-1-1.9-1-3s0.3-2.1,1-3C180.2,21.9,181.2,21.4,182.2,21.5z M182.2,22.1c-0.3,0-0.6,0.1-0.8,0.3
				c-0.3,0.4-0.4,0.8-0.4,1.3c-0.1,0.6-0.1,1.6-0.1,2.7c0,0.6,0.1,1.1,0.1,1.7c0.1,0.3,0.2,0.7,0.4,0.9c0.2,0.2,0.4,0.3,0.7,0.3
				c0.3,0,0.4-0.1,0.6-0.2c0.3-0.2,0.4-0.5,0.4-0.8c0.1-1.1,0.2-2.2,0.2-3.3c0-0.7,0-1.3-0.2-2c-0.1-0.3-0.3-0.6-0.5-0.8
				C182.6,22.2,182.4,22.1,182.2,22.1L182.2,22.1z"/>
			<path id="Shape_00000147905737420820343800000005644805616108866205_" d="M190,30.1l-2.7-6.3c-0.2-0.5-0.4-1-0.8-1.5
				c-0.1-0.2-0.4-0.3-0.6-0.3v-0.3h4.3v0.3c-0.2,0-0.4,0-0.6,0.1c-0.1,0.1-0.2,0.3-0.2,0.4c0.1,0.4,0.2,0.8,0.4,1.2l1.3,3l1.1-2.6
				c0.3-0.5,0.4-1,0.4-1.6c0-0.2-0.1-0.3-0.2-0.4c-0.2-0.1-0.4-0.2-0.7-0.2v-0.3h2.7v0.3c-0.3,0-0.4,0.1-0.6,0.3
				c-0.3,0.4-0.6,0.9-0.7,1.4l-2.7,6.3H190z"/>
			<path id="Shape_00000129183490766875144530000001880775966949330304_" d="M201.2,25.5h-4.4c0,0.9,0.3,1.8,0.9,2.5
				c0.3,0.4,0.9,0.7,1.5,0.7c0.3,0,0.7-0.1,0.9-0.3c0.4-0.3,0.7-0.6,0.9-1.1l0.3,0.2c-0.3,0.8-0.8,1.4-1.5,1.9
				c-0.6,0.4-1.2,0.6-1.8,0.6c-1.1,0.1-2.1-0.4-2.7-1.4c-0.5-0.8-0.8-1.8-0.8-2.8c-0.1-1.2,0.3-2.3,1.1-3.2c0.6-0.8,1.6-1.2,2.5-1.2
				c0.8,0,1.6,0.4,2.1,1C200.9,23.3,201.2,24.4,201.2,25.5z M199,24.9c0-0.6,0-1.3-0.1-1.9c-0.1-0.3-0.3-0.6-0.5-0.8
				c-0.1-0.1-0.3-0.2-0.5-0.1c-0.3,0-0.6,0.2-0.8,0.4c-0.4,0.6-0.6,1.4-0.5,2.1V25L199,24.9z"/>
			<path id="Shape_00000040546593444512478010000002405663714947319200_" d="M204.7,21.7v1.8c0.4-0.6,0.8-1.2,1.4-1.6
				c0.3-0.3,0.8-0.4,1.2-0.4c0.3,0,0.6,0.1,0.8,0.3c0.2,0.3,0.3,0.5,0.3,0.8c0,0.3-0.1,0.6-0.3,0.9c-0.2,0.2-0.4,0.3-0.7,0.3
				c-0.3,0-0.6-0.1-0.8-0.3c-0.1-0.1-0.3-0.3-0.4-0.3c-0.1-0.1-0.1-0.1-0.2-0.1c-0.2,0-0.3,0.1-0.5,0.2c-0.3,0.3-0.4,0.5-0.6,0.8
				c-0.2,0.6-0.3,1.2-0.3,1.8v2.3c0,0.2,0,0.4,0.1,0.6c0.1,0.1,0.2,0.3,0.3,0.3c0.2,0.1,0.4,0.1,0.7,0.1v0.4h-4.4v-0.3
				c0.3,0,0.5-0.1,0.7-0.3c0.1-0.4,0.2-0.8,0.1-1.3v-4.5c0-0.3,0-0.6-0.1-0.9c-0.1-0.1-0.1-0.3-0.3-0.4c-0.2-0.1-0.4-0.1-0.6-0.1
				v-0.3H204.7L204.7,21.7z"/>
			<path id="Shape_00000150793611856877475850000014911962654351024800_" d="M211.6,21.7v1.1c0.3-0.4,0.8-0.7,1.2-0.9
				c0.4-0.2,0.8-0.3,1.2-0.3c0.4,0,0.9,0.1,1.3,0.4c0.3,0.3,0.6,0.6,0.7,1.1c0.1,0.6,0.2,1.3,0.1,1.9v3.2c-0.1,0.4,0,0.8,0.2,1.1
				c0.2,0.2,0.4,0.3,0.7,0.3v0.3h-4v-0.3c0.3,0,0.5-0.2,0.6-0.4c0.1-0.3,0.2-0.7,0.1-1.1v-3.6c0-0.4,0-0.8-0.1-1.3
				c-0.1-0.2-0.1-0.3-0.3-0.4c-0.1-0.1-0.3-0.1-0.4-0.1c-0.5,0-0.9,0.4-1.4,1.1v4.3c-0.1,0.4,0,0.8,0.1,1.1c0.1,0.2,0.4,0.3,0.6,0.3
				v0.3h-4.1v-0.3c0.3,0,0.6-0.1,0.7-0.3c0.1-0.4,0.2-0.8,0.1-1.1v-4.5c0.1-0.4,0-0.8-0.2-1.1c-0.2-0.2-0.4-0.3-0.7-0.3v-0.3H211.6z
				"/>
			<path id="Shape_00000033327905338823268360000017707013785289669798_" d="M220.5,21.7v1.1c0.4-0.4,0.8-0.8,1.3-1
				c0.4-0.2,0.8-0.3,1.3-0.3s0.9,0.1,1.3,0.4c0.4,0.3,0.6,0.6,0.8,1.1c0.4-0.4,0.8-0.8,1.3-1.1c0.4-0.3,0.9-0.3,1.3-0.3
				c0.5,0,0.9,0.1,1.3,0.4c0.3,0.3,0.5,0.6,0.6,1c0.1,0.6,0.3,1.3,0.2,1.9v3.3c-0.1,0.4,0,0.8,0.2,1.1c0.2,0.2,0.4,0.3,0.7,0.3v0.3
				h-4.2v-0.3c0.3,0,0.6-0.1,0.7-0.4c0.1-0.3,0.2-0.7,0.1-1.1v-3.5c0-0.4,0-0.9-0.1-1.4c-0.1-0.2-0.1-0.3-0.3-0.4
				c-0.1-0.1-0.3-0.1-0.4-0.1c-0.3,0-0.6,0.1-0.8,0.3c-0.3,0.3-0.6,0.5-0.8,0.8v4.4c-0.1,0.4,0,0.8,0.1,1.1c0.2,0.3,0.4,0.4,0.8,0.4
				v0.3H222v-0.3c0.2,0,0.4-0.1,0.5-0.2c0.1-0.1,0.2-0.2,0.3-0.4c0.1-0.3,0.1-0.6,0.1-0.9v-3.5c0-0.4,0-0.9-0.1-1.4
				c-0.1-0.2-0.1-0.3-0.3-0.4c-0.1-0.1-0.3-0.1-0.4-0.1c-0.3,0-0.4,0.1-0.6,0.2c-0.3,0.3-0.6,0.6-0.8,0.9V28c0,0.4,0.1,0.8,0.2,1.1
				c0.2,0.2,0.4,0.3,0.7,0.3v0.4h-4.2v-0.3c0.3,0,0.6-0.1,0.8-0.3c0.1-0.4,0.2-0.8,0.1-1.1v-4.5c0.1-0.4,0-0.8-0.2-1.1
				c-0.2-0.2-0.4-0.3-0.7-0.3v-0.3H220.5z"/>
			<path id="Shape_00000036214147251704659070000000114939091801779628_" d="M237.9,25.5h-4.4c0,0.9,0.3,1.8,0.9,2.5
				c0.3,0.4,0.9,0.7,1.5,0.7c0.3,0,0.7-0.1,0.9-0.3c0.4-0.3,0.6-0.6,0.9-1l0.3,0.2c-0.3,0.8-0.8,1.4-1.5,1.9
				c-0.6,0.4-1.2,0.6-1.8,0.6c-1.1,0.1-2.1-0.5-2.7-1.4c-0.5-0.8-0.8-1.8-0.8-2.8c-0.1-1.2,0.3-2.3,1.1-3.2c0.6-0.8,1.6-1.2,2.5-1.2
				c0.8,0,1.6,0.4,2.1,1C237.6,23.4,238,24.4,237.9,25.5z M235.8,24.9c0-0.6,0-1.3-0.1-1.9c-0.1-0.3-0.3-0.6-0.5-0.8
				c-0.1-0.1-0.3-0.2-0.5-0.1c-0.3,0-0.6,0.2-0.8,0.4c-0.4,0.6-0.6,1.4-0.5,2.1V25L235.8,24.9z"/>
			<path id="Shape_00000068651535960602276870000008069183037190721920_" d="M241.4,21.7v1.1c0.3-0.4,0.8-0.7,1.2-0.9
				c0.4-0.2,0.8-0.3,1.2-0.3c0.4,0,0.9,0.1,1.3,0.4c0.3,0.3,0.6,0.6,0.7,1.1c0.1,0.6,0.2,1.3,0.1,1.9v3.2c-0.1,0.4,0,0.8,0.2,1.1
				c0.2,0.2,0.4,0.3,0.7,0.3v0.3h-4.2v-0.3c0.3,0,0.5-0.2,0.6-0.4c0.1-0.3,0.2-0.7,0.1-1.1v-3.6c0-0.4,0-0.8-0.1-1.3
				c-0.1-0.2-0.1-0.3-0.3-0.4c-0.1-0.1-0.3-0.1-0.4-0.1c-0.5,0-0.9,0.4-1.4,1.1v4.3c-0.1,0.4,0,0.8,0.2,1.1c0.1,0.2,0.4,0.3,0.6,0.3
				v0.3h-4v-0.3c0.3,0,0.6-0.1,0.7-0.3c0.1-0.4,0.2-0.8,0.1-1.1v-4.5c0.1-0.4,0-0.8-0.2-1.1c-0.2-0.2-0.4-0.3-0.7-0.3v-0.3H241.4z"
				/>
			<path id="Shape_00000036247118486535274330000012243866164408157116_" d="M250.2,18.8v3h1.9v0.8h-1.9v5c0,0.3,0,0.6,0.1,0.9
				c0.1,0.1,0.1,0.3,0.3,0.3c0.1,0.1,0.2,0.1,0.3,0.1c0.4,0,0.8-0.3,1.1-0.8l0.3,0.2c-0.3,1-1.3,1.6-2.3,1.6c-0.4,0-0.9-0.1-1.3-0.4
				c-0.3-0.3-0.6-0.6-0.7-0.9c-0.1-0.5-0.1-1.1-0.1-1.6v-4.4h-1.1v-0.3c0.7-0.4,1.3-1,1.8-1.6c0.5-0.6,0.9-1.2,1.3-1.9L250.2,18.8z"
				/>
			<path id="Shape_00000085929355360259324830000015516933063764936355_" d="M89.9,55.1v-0.3h0.4c0.3,0,0.5-0.1,0.7-0.1
				c0.2-0.1,0.3-0.3,0.4-0.4c0.1-0.3,0.1-0.7,0.1-1v-7.2c0-0.4,0-0.7-0.1-1.1c-0.1-0.1-0.2-0.3-0.4-0.4c-0.3-0.1-0.5-0.2-0.7-0.1
				h-0.4v-0.3h4.9c1.1-0.1,2.1,0.1,3.2,0.5c0.9,0.4,1.7,1.1,2.2,2c0.8,1.6,1,3.4,0.4,5.1c-0.2,0.6-0.5,1.1-0.9,1.6
				c-0.4,0.4-0.8,0.8-1.3,1c-0.6,0.3-1.3,0.5-1.9,0.6c-0.5,0.1-1,0.1-1.5,0.1L89.9,55.1z M94.1,44.9v8.5c0,0.3,0,0.6,0.1,0.8
				c0.1,0.1,0.1,0.2,0.2,0.3c0.2,0.1,0.4,0.1,0.6,0.1c0.8,0.1,1.6-0.3,2-0.9c0.6-0.8,0.9-2.1,0.9-3.9c0.1-1.1-0.2-2.3-0.6-3.3
				c-0.3-0.6-0.8-1.1-1.3-1.3C95.4,44.9,94.7,44.8,94.1,44.9L94.1,44.9z"/>
			<path id="Shape_00000036237771900701403210000018139332104828931218_" d="M107.7,51.1h-4.1c0,0.9,0.3,1.7,0.8,2.3
				c0.3,0.4,0.8,0.6,1.3,0.7c0.3,0,0.6-0.1,0.9-0.3c0.3-0.3,0.6-0.6,0.8-0.9l0.3,0.2c-0.3,0.7-0.8,1.3-1.3,1.8
				c-0.5,0.4-1.1,0.5-1.7,0.5c-1,0.1-2-0.4-2.5-1.3c-0.5-0.8-0.7-1.6-0.7-2.6c-0.1-1.1,0.3-2.1,1-3c0.6-0.7,1.5-1.1,2.4-1.1
				c0.8,0,1.5,0.3,2,0.9C107.4,49.1,107.7,50,107.7,51.1z M105.7,50.5c0-0.6,0-1.2-0.1-1.8c-0.1-0.3-0.2-0.6-0.4-0.8
				c-0.1-0.1-0.3-0.1-0.4-0.1c-0.3,0-0.6,0.2-0.7,0.4c-0.3,0.6-0.5,1.3-0.5,2v0.3H105.7z"/>
			<path id="Shape_00000162337932751134660200000016685291802077713281_" d="M110.6,54.3v2.8c0,0.3,0,0.5,0.1,0.8
				c0.1,0.1,0.1,0.3,0.3,0.3c0.3,0.1,0.5,0.1,0.8,0.1v0.3h-4.2v-0.3c0.3,0,0.6-0.1,0.8-0.3c0.1-0.3,0.2-0.6,0.1-0.9v-8
				c0.1-0.4,0-0.7-0.2-1c-0.2-0.2-0.4-0.3-0.7-0.3v-0.3h3.2v1c0.2-0.3,0.5-0.6,0.8-0.8c0.4-0.3,0.8-0.4,1.3-0.4
				c0.6,0,1.1,0.2,1.5,0.5c0.4,0.4,0.8,0.9,1,1.5c0.3,0.6,0.4,1.3,0.4,2c0,0.7-0.1,1.4-0.4,2.1c-0.2,0.6-0.6,1.1-1.1,1.5
				c-0.4,0.3-1,0.5-1.5,0.5c-0.4,0-0.8-0.1-1.1-0.3C111.1,54.8,110.9,54.6,110.6,54.3z M110.6,53.5c0.3,0.6,0.9,0.9,1.5,0.9
				c0.3,0,0.6-0.2,0.7-0.4c0.3-0.8,0.5-1.7,0.4-2.6c0.1-0.9-0.1-1.8-0.4-2.7c-0.2-0.3-0.5-0.5-0.8-0.5c-0.6,0-1,0.4-1.3,1.1
				L110.6,53.5z"/>
			<path id="Shape_00000142164378107921742010000018319199768302835128_" d="M120.2,54c-0.6,0.7-1.5,1.1-2.5,1.2
				c-0.4,0-0.8-0.1-1.1-0.4c-0.3-0.3-0.4-0.6-0.4-1.1c0-0.6,0.3-1.1,0.7-1.5c1-0.8,2.1-1.4,3.2-1.8v-0.8c0-0.4,0-0.7-0.1-1.1
				c-0.1-0.2-0.2-0.3-0.4-0.4c-0.2-0.1-0.4-0.2-0.6-0.2c-0.3,0-0.6,0.1-0.9,0.3c-0.1,0.1-0.2,0.2-0.2,0.3c0,0.2,0.1,0.3,0.3,0.4
				c0.2,0.2,0.3,0.4,0.3,0.7s-0.1,0.5-0.3,0.7c-0.2,0.2-0.5,0.3-0.8,0.3c-0.3,0-0.6-0.1-0.8-0.3c-0.2-0.2-0.3-0.4-0.3-0.7
				c0-0.4,0.2-0.8,0.4-1.1c0.3-0.4,0.8-0.6,1.3-0.8c0.6-0.2,1.1-0.3,1.7-0.3s1.2,0.1,1.7,0.4c0.4,0.3,0.7,0.6,0.9,0.9
				c0.1,0.5,0.1,1,0.1,1.5v2.9c0,0.2,0,0.4,0.1,0.6c0,0.1,0.1,0.1,0.1,0.2c0.1,0.1,0.1,0.1,0.2,0.1c0.1,0,0.3-0.1,0.4-0.3l0.3,0.2
				c-0.2,0.3-0.5,0.6-0.8,0.9c-0.3,0.2-0.6,0.3-0.9,0.3c-0.4,0-0.7-0.1-1-0.3C120.4,54.7,120.2,54.3,120.2,54z M120.2,53.4v-2.5
				c-0.6,0.3-1.1,0.7-1.5,1.2c-0.2,0.3-0.3,0.6-0.3,0.9c0,0.3,0.1,0.4,0.3,0.6c0.1,0.1,0.4,0.3,0.6,0.2
				C119.6,53.8,120,53.6,120.2,53.4z"/>
			<path id="Shape_00000093896496788103231010000015826203179596154291_" d="M126.5,47.6v1.7c0.3-0.6,0.8-1.1,1.3-1.5
				c0.3-0.3,0.7-0.4,1.1-0.4c0.3,0,0.5,0.1,0.7,0.3c0.2,0.2,0.3,0.5,0.3,0.8c0,0.3-0.1,0.6-0.3,0.8c-0.1,0.2-0.4,0.3-0.6,0.3
				c-0.3,0-0.5-0.1-0.8-0.3c-0.1-0.1-0.3-0.2-0.4-0.3c-0.1-0.1-0.1-0.1-0.2-0.1c-0.2,0-0.3,0.1-0.4,0.2c-0.3,0.2-0.4,0.5-0.5,0.8
				c-0.2,0.6-0.3,1.1-0.3,1.7v2.1c0,0.2,0,0.4,0.1,0.6c0.1,0.1,0.1,0.3,0.3,0.3c0.2,0.1,0.4,0.1,0.6,0.1v0.4h-4v-0.3
				c0.3,0,0.4-0.1,0.6-0.3c0.1-0.4,0.2-0.8,0.2-1.2v-4.2c0-0.3,0-0.6-0.1-0.8c-0.1-0.1-0.1-0.3-0.3-0.3c-0.2-0.1-0.4-0.1-0.6-0.1
				v-0.3H126.5z"/>
			<path id="Shape_00000176030158005038891290000016986380436447832748_" d="M132.9,44.9v2.7h1.8v0.8h-1.8V53c0,0.3,0,0.6,0.1,0.8
				c0.1,0.1,0.1,0.3,0.2,0.3s0.2,0.1,0.3,0.1c0.4,0,0.7-0.3,1-0.8l0.3,0.2c-0.3,0.9-1.1,1.6-2.1,1.5c-0.4,0-0.9-0.1-1.2-0.4
				c-0.3-0.2-0.5-0.5-0.6-0.9c-0.1-0.5-0.1-1-0.1-1.5v-4h-0.9v-0.3c0.6-0.4,1.2-0.9,1.7-1.5c0.5-0.5,0.9-1.1,1.3-1.8H132.9z"/>
			<path id="Shape_00000003085728078131487460000001129798921161139593_" d="M137.7,47.6v1c0.3-0.4,0.7-0.7,1.1-0.9
				c0.4-0.2,0.8-0.3,1.1-0.3c0.4,0,0.8,0.1,1.2,0.3c0.4,0.3,0.6,0.6,0.8,1c0.4-0.4,0.8-0.8,1.2-1.1c0.4-0.2,0.8-0.3,1.2-0.3
				c0.4,0,0.9,0.1,1.3,0.4c0.3,0.3,0.5,0.6,0.6,0.9c0.1,0.6,0.2,1.1,0.2,1.8v3.1c-0.1,0.4,0,0.8,0.1,1.1c0.2,0.2,0.4,0.3,0.6,0.3
				v0.3h-3.9v-0.3c0.3,0,0.5-0.1,0.7-0.3c0.1-0.3,0.2-0.6,0.1-1v-3.2c0-0.4,0-0.8-0.1-1.3c-0.1-0.2-0.1-0.3-0.3-0.4
				c-0.1-0.1-0.3-0.1-0.4-0.1c-0.3,0-0.5,0.1-0.7,0.3c-0.3,0.2-0.5,0.4-0.7,0.8v4c0,0.3,0,0.7,0.1,1c0.2,0.2,0.4,0.3,0.7,0.3v0.3
				H139v-0.3c0.2,0,0.4-0.1,0.5-0.1c0.1-0.1,0.2-0.2,0.3-0.3c0.1-0.3,0.1-0.6,0.1-0.8v-3.2c0-0.4,0-0.8-0.1-1.3
				c-0.1-0.1-0.1-0.3-0.3-0.4c-0.1-0.1-0.3-0.1-0.4-0.1c-0.2,0-0.4,0.1-0.6,0.2c-0.3,0.2-0.6,0.5-0.8,0.8v4c-0.1,0.3,0,0.7,0.1,1
				c0.1,0.2,0.4,0.3,0.6,0.3v0.2h-3.9v-0.3c0.3,0,0.5-0.1,0.7-0.3c0.1-0.3,0.2-0.7,0.1-1.1v-4.2c0.1-0.4,0-0.7-0.1-1.1
				c-0.2-0.2-0.4-0.3-0.6-0.3v-0.3L137.7,47.6L137.7,47.6z"/>
			<path id="Shape_00000119082328110441510560000003981376173986663825_" d="M153.8,51.1h-4.1c0,0.8,0.3,1.7,0.8,2.3
				c0.3,0.4,0.8,0.6,1.3,0.7c0.3,0,0.6-0.1,0.9-0.3c0.3-0.3,0.6-0.6,0.8-0.9l0.3,0.2c-0.3,0.7-0.8,1.3-1.3,1.8
				c-0.5,0.4-1.1,0.5-1.7,0.5c-1,0.1-2-0.4-2.5-1.3c-0.5-0.8-0.7-1.6-0.7-2.6c-0.1-1.1,0.3-2.2,1.1-3c0.6-0.7,1.5-1.1,2.4-1.1
				c0.8,0,1.5,0.3,2,0.9C153.5,49.1,153.8,50,153.8,51.1z M151.8,50.5c0-0.6,0-1.2-0.1-1.8c-0.1-0.3-0.2-0.6-0.4-0.8
				c-0.1-0.1-0.3-0.1-0.4-0.1c-0.3,0-0.6,0.2-0.7,0.4c-0.3,0.6-0.5,1.3-0.5,2v0.3H151.8z"/>
			<path id="Shape_00000009558619184625723680000008527555900365826721_" d="M157,47.6v0.9c0.3-0.4,0.7-0.7,1.1-0.9
				c0.4-0.2,0.8-0.3,1.1-0.3c0.4,0,0.9,0.1,1.2,0.4s0.5,0.6,0.6,1c0.1,0.6,0.1,1.1,0.1,1.8v2.9c-0.1,0.4,0,0.8,0.1,1.1
				c0.2,0.2,0.4,0.3,0.6,0.3v0.3h-3.8v-0.3c0.3,0,0.5-0.1,0.6-0.4c0.1-0.3,0.1-0.6,0.1-1V50c0-0.4,0-0.8-0.1-1.1
				c-0.1-0.1-0.1-0.3-0.3-0.4c-0.1-0.1-0.3-0.1-0.4-0.1c-0.4,0-0.9,0.3-1.3,1v4c-0.1,0.4,0,0.8,0.1,1.1c0.1,0.2,0.4,0.3,0.6,0.3v0.3
				h-3.8v-0.3c0.3,0,0.5-0.1,0.7-0.3c0.1-0.3,0.2-0.7,0.1-1.1v-4.2c0.1-0.4,0-0.7-0.1-1.1c-0.2-0.2-0.4-0.3-0.6-0.3v-0.3L157,47.6
				L157,47.6z"/>
			<path id="Shape_00000067237645343321627090000010236796509395507610_" d="M165.2,44.9v2.7h1.8v0.8h-1.8V53c0,0.3,0,0.6,0.1,0.8
				c0.1,0.1,0.1,0.3,0.2,0.3s0.2,0.1,0.3,0.1c0.3,0,0.7-0.3,1-0.8l0.3,0.2c-0.3,0.9-1.1,1.6-2.1,1.5c-0.4,0-0.9-0.1-1.2-0.4
				c-0.3-0.2-0.5-0.5-0.6-0.9c-0.1-0.5-0.1-1-0.1-1.5v-4h-1v-0.3c0.6-0.4,1.2-0.9,1.8-1.5c0.5-0.5,0.9-1.1,1.3-1.8H165.2z"/>
			<path id="Shape_00000000215710204805898350000017119615871147169958_" d="M173.7,47.4c0.6,0,1.3,0.2,1.8,0.5s1,0.8,1.3,1.5
				c0.3,0.6,0.4,1.3,0.4,2c0.1,0.9-0.3,1.9-0.8,2.7c-0.6,0.9-1.6,1.3-2.7,1.3c-1,0.1-2-0.4-2.6-1.2c-1.3-1.6-1.3-3.9,0-5.6
				C171.7,47.8,172.6,47.3,173.7,47.4z M173.7,48c-0.3,0-0.5,0.1-0.7,0.3c-0.3,0.4-0.4,0.8-0.4,1.2c-0.1,0.6-0.1,1.5-0.1,2.5
				c0,0.5,0.1,1.1,0.1,1.6c0.1,0.3,0.2,0.6,0.4,0.9c0.2,0.2,0.4,0.3,0.6,0.3c0.3,0,0.4-0.1,0.6-0.2c0.2-0.2,0.4-0.4,0.4-0.8
				c0.1-1,0.2-2,0.1-3.1c0-0.6,0-1.3-0.1-1.9c-0.1-0.3-0.3-0.6-0.4-0.8C174.1,48,173.9,47.9,173.7,48L173.7,48z"/>
			<path id="Shape_00000001666121210951981050000002033505526788541832_" d="M180.8,48.3v5.2c-0.1,0.3,0,0.6,0.1,0.9
				c0.3,0.3,0.6,0.3,0.9,0.3v0.4h-4.4v-0.3c0.3,0,0.5,0,0.7-0.1c0.1-0.1,0.3-0.2,0.3-0.3c0.1-0.3,0.1-0.5,0.1-0.8v-5.2h-1.1v-0.8
				h1.1v-0.9c0-0.7,0.3-1.4,0.8-1.9c0.6-0.6,1.5-0.8,2.3-0.8c0.5-0.1,1,0.1,1.5,0.4c0.3,0.2,0.4,0.5,0.5,0.8c0,0.3-0.1,0.5-0.3,0.6
				c-0.2,0.2-0.5,0.3-0.8,0.3c-0.3,0-0.4-0.1-0.6-0.2c-0.1-0.1-0.3-0.3-0.3-0.5c0-0.1,0-0.2,0.1-0.3c0-0.1,0-0.2,0-0.3
				s0-0.2-0.1-0.3c-0.1-0.1-0.2-0.1-0.3-0.1s-0.3,0.1-0.4,0.2c-0.1,0.2-0.2,0.4-0.1,0.6v2.3h1.1v0.8L180.8,48.3z"/>
			<path id="Shape_00000078751516026897041010000015865086309374672565_" d="M199.6,44.2v0.3c-0.4,0.1-0.8,0.3-1.1,0.6
				c-0.4,0.6-0.8,1.2-1,1.9l-3.7,8.3h-0.3l-3.7-8.7c-0.3-0.6-0.6-1.3-0.9-1.8c-0.3-0.3-0.6-0.3-0.9-0.4v-0.3h5.2v0.3H193
				c-0.3,0-0.6,0.1-0.9,0.2c-0.1,0.1-0.2,0.2-0.2,0.4c0,0.1,0,0.3,0.1,0.3c0.1,0.1,0.2,0.5,0.4,1.1l2.3,5.4l2.1-4.8
				c0.2-0.4,0.3-0.8,0.5-1.1c0.1-0.2,0.1-0.3,0.1-0.5c0-0.1-0.1-0.3-0.1-0.4c-0.1-0.1-0.3-0.3-0.4-0.3c-0.3-0.1-0.6-0.1-0.9-0.1
				v-0.3L199.6,44.2z"/>
			<path id="Shape_00000058585805353689248550000005534613119380260230_" d="M204.4,51.1h-4.1c0,0.8,0.3,1.7,0.8,2.3
				c0.3,0.4,0.8,0.6,1.3,0.7c0.3,0,0.6-0.1,0.9-0.3c0.3-0.3,0.6-0.6,0.8-0.9l0.3,0.2c-0.3,0.7-0.8,1.3-1.3,1.8
				c-0.5,0.4-1.1,0.5-1.7,0.5c-1,0.1-2-0.4-2.5-1.3c-0.5-0.8-0.7-1.6-0.7-2.6c-0.1-1.1,0.3-2.1,1-3c0.6-0.7,1.5-1.1,2.4-1.1
				c0.8,0,1.5,0.3,2,0.9C204,49.1,204.4,50,204.4,51.1z M202.3,50.5c0-0.6,0-1.2-0.1-1.8c-0.1-0.3-0.2-0.6-0.4-0.8
				c-0.1-0.1-0.3-0.1-0.4-0.1c-0.3,0-0.6,0.2-0.7,0.4c-0.3,0.6-0.5,1.3-0.5,2v0.3H202.3z"/>
			<path id="Shape_00000070816481578389096240000004179237712629486748_" d="M207.4,44.9v2.7h1.8v0.8h-1.8V53c0,0.3,0,0.6,0.1,0.8
				c0.1,0.1,0.1,0.3,0.2,0.3c0.1,0.1,0.2,0.1,0.3,0.1c0.3,0,0.7-0.3,1-0.8l0.3,0.2c-0.3,0.9-1.1,1.6-2.1,1.5c-0.4,0-0.9-0.1-1.2-0.4
				c-0.3-0.2-0.5-0.5-0.6-0.9c-0.1-0.5-0.1-1-0.1-1.5v-4h-0.9v-0.3c0.6-0.4,1.2-0.9,1.7-1.5c0.5-0.5,0.9-1.1,1.3-1.8H207.4z"/>
			<path id="Shape_00000121974575598596157350000016017975342692539016_" d="M215.5,51.1h-4.1c0,0.8,0.3,1.7,0.8,2.3
				c0.3,0.4,0.8,0.6,1.3,0.7c0.3,0,0.6-0.1,0.9-0.3c0.3-0.3,0.6-0.6,0.8-0.9l0.3,0.2c-0.3,0.7-0.8,1.3-1.3,1.8
				c-0.5,0.4-1.1,0.5-1.7,0.5c-1,0.1-2-0.4-2.5-1.3c-0.5-0.8-0.8-1.6-0.7-2.6c-0.1-1.1,0.3-2.1,1-3c0.6-0.7,1.5-1.1,2.4-1.1
				c0.8,0,1.5,0.3,2,0.9C215.2,49.1,215.5,50,215.5,51.1z M213.4,50.5c0-0.6,0-1.2-0.1-1.8c-0.1-0.3-0.2-0.6-0.4-0.8
				c-0.1-0.1-0.3-0.1-0.4-0.1c-0.3,0-0.6,0.2-0.7,0.4c-0.3,0.6-0.5,1.3-0.5,2v0.3H213.4z"/>
			<path id="Shape_00000178898476835314990620000007417843798179202993_" d="M218.6,47.6v1.7c0.3-0.6,0.8-1.1,1.3-1.5
				c0.3-0.3,0.7-0.4,1.1-0.4c0.3,0,0.5,0.1,0.7,0.3c0.2,0.2,0.3,0.5,0.3,0.8c0,0.3-0.1,0.6-0.3,0.8c-0.1,0.2-0.4,0.3-0.6,0.3
				c-0.3,0-0.5-0.1-0.8-0.3c-0.1-0.1-0.3-0.2-0.4-0.3c-0.1-0.1-0.1-0.1-0.2-0.1c-0.2,0-0.3,0.1-0.4,0.2c-0.3,0.2-0.4,0.5-0.5,0.8
				c-0.2,0.6-0.3,1.1-0.3,1.7v2.1c0,0.2,0,0.4,0.1,0.6c0.1,0.1,0.1,0.3,0.3,0.3c0.2,0.1,0.4,0.1,0.6,0.1v0.4h-4v-0.3
				c0.3,0,0.4-0.1,0.6-0.3c0.1-0.4,0.2-0.8,0.2-1.2v-4.2c0-0.3,0-0.6-0.1-0.8c-0.1-0.1-0.1-0.3-0.3-0.3c-0.2-0.1-0.4-0.1-0.6-0.1
				v-0.3H218.6z"/>
			<path id="Shape_00000183216523315995813250000012202006079358334869_" d="M226.1,54c-0.6,0.7-1.5,1.1-2.5,1.2
				c-0.4,0-0.8-0.1-1.1-0.4c-0.3-0.3-0.4-0.6-0.4-1.1c0-0.6,0.3-1.1,0.8-1.5c1-0.8,2.1-1.4,3.2-1.8v-0.8c0-0.4,0-0.7-0.1-1.1
				c-0.1-0.2-0.2-0.3-0.3-0.4c-0.2-0.1-0.4-0.2-0.6-0.2c-0.3,0-0.6,0.1-0.9,0.3c-0.1,0.1-0.2,0.2-0.2,0.3c0,0.2,0.1,0.3,0.3,0.4
				c0.2,0.2,0.3,0.4,0.3,0.7s-0.1,0.5-0.3,0.7c-0.2,0.2-0.5,0.3-0.8,0.3c-0.3,0-0.6-0.1-0.8-0.3c-0.2-0.2-0.3-0.4-0.3-0.7
				c0-0.4,0.2-0.8,0.4-1.1c0.3-0.4,0.8-0.6,1.3-0.8c0.6-0.2,1.1-0.3,1.7-0.3s1.2,0.1,1.7,0.4c0.4,0.3,0.6,0.6,0.8,0.9
				c0.1,0.5,0.1,1,0.1,1.5v2.9c0,0.2,0,0.4,0.1,0.6c0,0.1,0.1,0.1,0.1,0.2c0.1,0.1,0.1,0.1,0.2,0.1c0.1,0,0.3-0.1,0.4-0.3l0.3,0.2
				c-0.2,0.3-0.5,0.6-0.8,0.9c-0.3,0.2-0.6,0.3-0.9,0.3c-0.4,0-0.7-0.1-1-0.3C226.3,54.7,226.2,54.3,226.1,54z M226.1,53.4v-2.5
				c-0.6,0.3-1.1,0.7-1.5,1.2c-0.2,0.3-0.3,0.6-0.3,0.9c0,0.3,0.1,0.4,0.3,0.6c0.1,0.1,0.4,0.3,0.6,0.2
				C225.6,53.8,225.9,53.6,226.1,53.4z"/>
			<path id="Shape_00000139252999737064122850000005548257591884284557_" d="M232.5,47.6v0.9c0.3-0.4,0.7-0.7,1.1-0.9
				c0.4-0.2,0.8-0.3,1.1-0.3c0.4,0,0.9,0.1,1.2,0.4c0.3,0.3,0.5,0.6,0.6,1c0.1,0.6,0.1,1.1,0.1,1.8v2.9c-0.1,0.4,0,0.8,0.1,1.1
				c0.2,0.2,0.4,0.3,0.6,0.3v0.3h-3.8v-0.3c0.3,0,0.5-0.1,0.6-0.4c0.1-0.3,0.1-0.6,0.1-1V50c0-0.4,0-0.8-0.1-1.1
				c-0.1-0.1-0.1-0.3-0.3-0.4c-0.1-0.1-0.3-0.1-0.4-0.1c-0.4,0-0.9,0.3-1.3,1v4c-0.1,0.4,0,0.8,0.1,1.1c0.1,0.2,0.4,0.3,0.6,0.3v0.3
				h-3.8v-0.3c0.3,0,0.5-0.1,0.7-0.3c0.1-0.3,0.2-0.7,0.1-1.1v-4.2c0.1-0.4,0-0.7-0.1-1.1c-0.2-0.2-0.4-0.3-0.6-0.3v-0.3L232.5,47.6
				L232.5,47.6z"/>
			<path id="Shape_00000042717834325444581210000008710028110099571874_" d="M242.5,47.4l0.1,2.5h-0.3c-0.2-0.6-0.6-1.1-1-1.6
				c-0.3-0.3-0.6-0.4-1.1-0.4c-0.2,0-0.4,0.1-0.6,0.2c-0.1,0.1-0.3,0.3-0.3,0.5c0,0.1,0.1,0.3,0.1,0.4c0.4,0.4,0.9,0.8,1.5,1.1
				c0.6,0.4,1.1,0.8,1.6,1.4c0.3,0.4,0.4,0.8,0.4,1.3c0,0.4-0.1,0.8-0.3,1.2c-0.2,0.4-0.5,0.7-0.9,0.9c-0.4,0.2-0.8,0.3-1.3,0.3
				c-0.5,0-0.9-0.1-1.5-0.3c-0.1-0.1-0.2-0.1-0.3-0.1c-0.2,0-0.3,0.1-0.4,0.4h-0.3l-0.1-2.7h0.3c0.2,0.6,0.5,1.1,1,1.6
				c0.3,0.3,0.8,0.5,1.2,0.5c0.3,0,0.4-0.1,0.6-0.3c0.2-0.1,0.3-0.4,0.3-0.6c0-0.3-0.1-0.5-0.3-0.7c-0.3-0.3-0.7-0.6-1.1-0.8
				c-0.6-0.4-1.1-0.8-1.6-1.3c-0.3-0.4-0.5-0.9-0.5-1.5c0-0.6,0.3-1.1,0.6-1.6c0.4-0.4,1.1-0.7,1.7-0.7c0.4,0,0.8,0.1,1.2,0.3
				c0.1,0.1,0.3,0.1,0.4,0.1c0.1,0,0.2,0,0.3-0.1c0.1-0.1,0.2-0.2,0.3-0.3L242.5,47.4L242.5,47.4z"/>
			<path id="Shape_00000085217936629547090630000005823785970147945655_" d="M244.3,49.3v-0.4c0.6-0.2,1-0.6,1.3-1
				c0.3-0.4,0.4-0.8,0.4-1.3c0-0.1,0-0.1-0.1-0.2c0-0.1-0.1-0.1-0.1-0.1c-0.1,0-0.1,0-0.1,0.1c-0.2,0.1-0.4,0.1-0.6,0.1
				c-0.3,0-0.6-0.1-0.8-0.4c-0.3-0.3-0.4-0.6-0.3-0.9c0-0.4,0.1-0.7,0.4-0.9c0.3-0.3,0.6-0.4,0.9-0.4c0.4,0,0.9,0.2,1.2,0.5
				c0.3,0.4,0.5,0.9,0.5,1.5c0,0.8-0.3,1.5-0.7,2C245.8,48.7,245.1,49.1,244.3,49.3z"/>
			<path id="Shape_00000079452328373530092680000005720559797430597302_" d="M255.4,52h-3.9l-0.4,1.1c-0.1,0.3-0.2,0.6-0.3,0.9
				c0,0.3,0.1,0.6,0.4,0.7c0.3,0.1,0.7,0.2,1.1,0.2v0.3h-3.6v-0.3c0.4-0.1,0.7-0.2,0.9-0.5c0.4-0.5,0.7-1.1,0.9-1.6l3.9-8.7h0.1
				l3.9,8.9c0.2,0.6,0.5,1.1,0.9,1.6c0.2,0.2,0.5,0.3,0.8,0.3v0.3H255v-0.3h0.2c0.3,0,0.6-0.1,0.9-0.2c0.1-0.1,0.2-0.3,0.2-0.4
				c0-0.1,0-0.2-0.1-0.3c-0.1-0.2-0.1-0.4-0.3-0.6L255.4,52z M255.1,51.4l-1.6-3.7l-1.6,3.7H255.1z"/>
			<path id="Shape_00000108299646798550495130000001379704509113575844_" d="M263.4,48.3v5.2c-0.1,0.3,0,0.6,0.1,0.9
				c0.3,0.3,0.6,0.3,0.9,0.3v0.4h-4.4v-0.3c0.3,0,0.5,0,0.7-0.1c0.1-0.1,0.3-0.2,0.3-0.3c0.1-0.3,0.1-0.5,0.1-0.8v-5.2h-1.1v-0.8
				h1.1v-0.9c0-0.7,0.3-1.4,0.8-1.9c0.6-0.6,1.5-0.8,2.3-0.8c0.5-0.1,1,0.1,1.5,0.4c0.3,0.2,0.4,0.5,0.5,0.8c0,0.3-0.1,0.5-0.3,0.6
				c-0.2,0.2-0.5,0.3-0.8,0.3s-0.4-0.1-0.6-0.2c-0.1-0.1-0.3-0.3-0.3-0.5c0-0.1,0-0.2,0.1-0.3c0-0.1,0-0.2,0-0.3s0-0.2-0.1-0.3
				c-0.1-0.1-0.2-0.1-0.3-0.1s-0.3,0.1-0.4,0.2c-0.1,0.2-0.2,0.4-0.1,0.6v2.3h1.1v0.8L263.4,48.3z"/>
			<path id="Shape_00000080185777987691490200000013404707368613382318_" d="M268.1,48.3v5.2c-0.1,0.3,0,0.6,0.1,0.9
				c0.3,0.3,0.6,0.3,0.9,0.3v0.4h-4.4v-0.3c0.3,0,0.5,0,0.7-0.1c0.1-0.1,0.3-0.2,0.3-0.3c0.1-0.3,0.1-0.5,0.1-0.8v-5.2h-1.1v-0.8
				h1.1v-0.9c0-0.7,0.3-1.4,0.8-1.9c0.6-0.6,1.5-0.8,2.3-0.8c0.5-0.1,1,0.1,1.5,0.4c0.3,0.2,0.4,0.5,0.5,0.8c0,0.3-0.1,0.5-0.3,0.6
				c-0.2,0.2-0.5,0.3-0.8,0.3s-0.4-0.1-0.6-0.2c-0.1-0.1-0.3-0.3-0.3-0.5c0-0.1,0-0.2,0.1-0.3c0-0.1,0-0.2,0-0.3s0-0.2-0.1-0.3
				c-0.1-0.1-0.2-0.1-0.3-0.1s-0.3,0.1-0.4,0.2c-0.1,0.2-0.2,0.4-0.1,0.6v2.3h1.1v0.8L268.1,48.3z"/>
			<path id="Shape_00000058568567514047226490000007114880986033112197_" d="M273.6,54c-0.6,0.7-1.5,1.1-2.5,1.2
				c-0.4,0-0.8-0.1-1.1-0.4c-0.3-0.3-0.4-0.6-0.4-1.1c0-0.6,0.3-1.1,0.8-1.5c1-0.8,2.1-1.4,3.2-1.8v-0.8c0-0.4,0-0.7-0.1-1.1
				c-0.1-0.2-0.2-0.3-0.3-0.4c-0.2-0.1-0.4-0.2-0.6-0.2c-0.3,0-0.6,0.1-0.9,0.3c-0.1,0.1-0.2,0.2-0.2,0.3c0,0.2,0.1,0.3,0.3,0.4
				c0.2,0.2,0.3,0.4,0.3,0.7s-0.1,0.5-0.3,0.7c-0.2,0.2-0.5,0.3-0.8,0.3c-0.3,0-0.6-0.1-0.8-0.3c-0.2-0.2-0.3-0.4-0.3-0.7
				c0-0.4,0.2-0.8,0.4-1.1c0.3-0.4,0.8-0.6,1.3-0.8c0.6-0.2,1.1-0.3,1.7-0.3s1.2,0.1,1.7,0.4c0.4,0.3,0.6,0.6,0.8,0.9
				c0.1,0.5,0.1,1,0.1,1.5v2.9c0,0.2,0,0.4,0.1,0.6c0,0.1,0.1,0.1,0.1,0.2c0.1,0.1,0.1,0.1,0.2,0.1c0.1,0,0.3-0.1,0.4-0.3l0.3,0.2
				c-0.2,0.3-0.5,0.6-0.8,0.9c-0.3,0.2-0.6,0.3-0.9,0.3c-0.4,0-0.7-0.1-1-0.3C273.8,54.6,273.6,54.3,273.6,54z M273.6,53.4v-2.5
				c-0.6,0.3-1.1,0.7-1.5,1.2c-0.2,0.3-0.3,0.6-0.3,0.9c0,0.3,0.1,0.4,0.3,0.6c0.1,0.1,0.4,0.3,0.6,0.2
				C273,53.8,273.3,53.6,273.6,53.4z"/>
			<path id="Shape_00000147216340200627053920000003665080313778756770_" d="M279.8,47.6v5.9c-0.1,0.4,0,0.7,0.2,1
				c0.2,0.2,0.4,0.3,0.7,0.3v0.3h-4v-0.3c0.3,0,0.6-0.1,0.8-0.3c0.1-0.3,0.2-0.6,0.1-1v-4.4c0.1-0.4,0-0.7-0.2-1
				c-0.2-0.2-0.4-0.3-0.7-0.3v-0.3L279.8,47.6L279.8,47.6z M278.6,43.9c0.7,0,1.3,0.6,1.3,1.3s-0.6,1.3-1.3,1.3s-1.3-0.6-1.3-1.3
				c0-0.3,0.1-0.7,0.4-0.9C278,44.1,278.3,43.9,278.6,43.9z"/>
			<path id="Shape_00000038372721827951528160000012062919205857826957_" d="M283.7,47.6v1.7c0.3-0.6,0.8-1.1,1.3-1.5
				c0.3-0.3,0.7-0.4,1.1-0.4c0.3,0,0.5,0.1,0.7,0.3c0.2,0.2,0.3,0.5,0.3,0.8c0,0.3-0.1,0.6-0.3,0.8c-0.1,0.2-0.4,0.3-0.6,0.3
				s-0.5-0.1-0.8-0.3c-0.1-0.1-0.3-0.2-0.4-0.3c-0.1-0.1-0.1-0.1-0.2-0.1c-0.2,0-0.3,0.1-0.4,0.2c-0.3,0.2-0.4,0.5-0.5,0.8
				c-0.2,0.6-0.3,1.1-0.3,1.7v2.1c0,0.2,0,0.4,0.1,0.6c0.1,0.1,0.1,0.3,0.3,0.3c0.2,0.1,0.4,0.1,0.6,0.1v0.4h-4v-0.3
				c0.3,0,0.4-0.1,0.6-0.3c0.1-0.4,0.2-0.8,0.2-1.2v-4.2c0-0.3,0-0.6-0.1-0.8c-0.1-0.1-0.1-0.3-0.3-0.3c-0.2-0.1-0.4-0.1-0.6-0.1
				v-0.3H283.7z"/>
			<path id="Shape_00000036248894371039968920000011411219256747674264_" d="M291.8,47.4l0.1,2.5h-0.3c-0.2-0.6-0.6-1.1-1-1.6
				c-0.3-0.3-0.6-0.4-1.1-0.4c-0.2,0-0.4,0.1-0.6,0.2c-0.1,0.1-0.3,0.3-0.3,0.5c0,0.1,0.1,0.3,0.1,0.4c0.4,0.4,0.9,0.8,1.5,1.1
				c0.6,0.4,1.1,0.8,1.6,1.4c0.3,0.4,0.4,0.8,0.4,1.3c0,0.4-0.1,0.8-0.3,1.2s-0.5,0.7-0.9,0.9c-0.4,0.2-0.8,0.3-1.3,0.3
				c-0.5,0-0.9-0.1-1.5-0.3c-0.1-0.1-0.2-0.1-0.3-0.1c-0.2,0-0.3,0.1-0.4,0.4h-0.3l-0.1-2.7h0.3c0.2,0.6,0.5,1.1,1,1.6
				c0.3,0.3,0.8,0.5,1.2,0.5c0.3,0,0.4-0.1,0.6-0.3c0.2-0.1,0.3-0.4,0.3-0.6c0-0.3-0.1-0.5-0.3-0.7c-0.3-0.3-0.7-0.6-1.1-0.8
				c-0.6-0.4-1.1-0.8-1.6-1.3c-0.3-0.4-0.5-0.9-0.5-1.5c0-0.6,0.3-1.1,0.6-1.6c0.4-0.5,1.1-0.8,1.7-0.7c0.4,0,0.8,0.1,1.2,0.3
				c0.1,0.1,0.3,0.1,0.4,0.1c0.1,0,0.2,0,0.3-0.1c0.1-0.1,0.2-0.2,0.3-0.3L291.8,47.4z"/>
			<path id="Shape_00000098199696921204718800000005970620336369811602_" d="M28.2,48c-0.1,0.1-0.1,0.2-0.2,0.2"/>
			<path id="Shape_00000078741136356250077500000010002030421670600100_" d="M30.1,33.1c0.3,0,0.4-0.2,0.4-0.4
				c0-0.2-0.2-0.4-0.4-0.4c-0.3,0-0.4,0.2-0.4,0.4l0,0C29.7,32.9,29.9,33.1,30.1,33.1L30.1,33.1L30.1,33.1L30.1,33.1z"/>
			<path id="Shape_00000039814394097860362470000013161060595267763372_" d="M48.6,16.3H34.2v11.6c0,1.1,0.5,2.1,1.1,2.4l5.6,3.3
				c0.3,0.3,0.6,0.3,0.9,0.1l0,0l5.6-3.3c0.6-0.3,1.1-1.3,1.1-2.4V16.3L48.6,16.3z M39,19.6h-1.3v-3H39V19.6z M38.1,20.6l0.2-0.2
				l-0.1-0.2h0.3l0.1-0.3l0.1,0.3h0.3l-0.1,0.2l0.2,0.2l-0.3,0.1v0.3l-0.2-0.1l-0.2,0.1v-0.3L38.1,20.6L38.1,20.6z M34.6,24.3v-2.8
				h1.5v2.8H34.6z M34.8,20.2h0.3l0.1-0.3l0.1,0.3h0.3l-0.1,0.2l0.2,0.2l-0.2,0.1v0.3l-0.2-0.1l-0.2,0.1v-0.3l-0.3-0.1l0.2-0.2
				L34.8,20.2z M36.5,23.1h0.3l0.1-0.3l0.1,0.3h0.3l-0.1,0.2l0.2,0.2l-0.3,0.1v0.3l-0.2-0.1l-0.2,0.1v-0.3h-0.3l0.2-0.2L36.5,23.1
				L36.5,23.1z M37.6,20.9c0-0.1-0.1-0.1-0.1-0.1S37.2,21,37.1,21S37,21,37,20.9s0.2-0.1,0.3-0.2c-0.9,0-0.9,0.4-1.1,0.4
				c-0.3,0,0.2-0.4,0.3-0.6c-0.2,0-0.3-0.3-0.5-0.4c0.1-0.1,0.1-0.1,0.3,0c0-0.1,0.1-0.2,0.3-0.2c0.4,0,0.3,0.4,0.4,0.4
				s0-0.4,0.3-0.4c0.4,0,0.9,1.1,0.4,1.1C37.4,21,37.6,20.9,37.6,20.9L37.6,20.9z M36.5,17.8l0.2-0.2l-0.1-0.2h0.3l0.1-0.3l0.1,0.3
				h0.3l-0.1,0.2l0.2,0.2l-0.3,0.1v0.3L36.9,18L36.7,18v-0.3H36.5L36.5,17.8z M36.1,16.6v3h-1.5v-3H36.1z M39,32l-3.4-2.1
				c-0.6-0.4-0.9-1.1-0.9-1.9v-3.3H39V32L39,32z M37.7,24.3v-2.8H39v2.8H37.7z M43.4,32.2l-1.6,0.9l0,0c-0.1,0.1-0.3,0.1-0.4,0.1
				c-0.1,0-0.3-0.1-0.4-0.1l-1.6-0.9v-7.5h4L43.4,32.2L43.4,32.2z M43.4,24.3h-4v-7.7h4L43.4,24.3L43.4,24.3z M48.2,28
				c0,0.8-0.4,1.5-0.9,1.9l-3.4,2v-7.2h4.4L48.2,28z M48.2,24.3h-4.4v-7.7h4.4V24.3L48.2,24.3z"/>
			<path id="Shape_00000145032085378442643780000005888889706767313580_" d="M38.8,27.4c0-0.1-0.6,0.2-0.4,0.1
				c0.1-0.3,0.3-0.4,0.4-0.6c0-0.2-0.3,0-0.5,0.1c0.8-1.2,0.3-0.7-0.2-0.6c0.8-0.8,0.5-0.8,0-0.5c0.4-0.3,0.5-0.8,0.4-0.8
				c-0.4,0.5-0.8,0.4-0.8,0.9c0,0.4-0.1,0.7-0.3,1c-0.2,0.3-0.1-0.9-0.6-0.9c-0.2,0-0.6,0-0.8,0.2c0.1,0,0.3,0.3,0.3,0.4
				s0.1,0.4-0.1,0.4c-0.2,0-0.4-0.4-0.4-0.6v-0.4c-0.1-0.6-0.6-0.9-1.1-1.1c0,0.3,0.4,0.4,0.4,0.8c-0.2,0-0.4-0.3-0.4-0.1
				s0.3,0.3,0.3,0.4c0,0.2-0.3-0.1-0.3,0.1c0,0.2,0.2,0.1,0.2,0.3c-0.1-0.1-0.2,0-0.3,0.1c0,0.1,0.1,0.1,0.1,0.2
				c-0.1,0.1-0.1,0.1-0.1,0.4c0,0.9,0.6,1.3,1,1.3c0.3,0,0.3-0.2,0.3-0.3c0,0.1,0.1-0.1,0.1,0.2s-0.3,0.1-0.3,0.4
				c0,0.3,0.4,0,0.4,0.4c0,0.2,0,0.4-0.1,0.6c0,0.1,0.5-0.1,0.4-0.2c0.1,0.1,0.1,0.4,0.3,0.4s0.2-0.3,0.3-0.4
				c-0.1,0,0.4,0.3,0.4,0.2c0-0.4-0.2-0.3-0.2-0.5s0.6-0.2,0.5-0.4c-0.1-0.2-0.1-0.1-0.2-0.3c0,0.1-0.4-0.7,0.1-0.3
				S38.7,27.4,38.8,27.4L38.8,27.4z"/>
			<path id="Shape_00000036211988053498232600000010760427115408704401_" d="M54.1,30.4c0.3,0,0.4-0.3,0.4-0.4
				c0-0.3-0.3-0.4-0.4-0.4c-0.2,0-0.4,0.2-0.4,0.4C53.7,30.2,53.8,30.4,54.1,30.4z"/>
			<path id="Shape_00000124148274393389393710000002808995307744367509_" d="M52.2,31.5c0.3,0,0.4-0.3,0.4-0.4
				c0-0.3-0.3-0.4-0.4-0.4c-0.2,0-0.4,0.2-0.4,0.4C51.7,31.3,52,31.5,52.2,31.5z"/>
			<path id="Shape_00000112591580717941474070000008874945483884481688_" d="M29.5,34.2c0.3,0,0.4-0.3,0.4-0.4
				c0-0.3-0.3-0.4-0.4-0.4S29,33.6,29,33.7C29,34,29.2,34.2,29.5,34.2z"/>
			<path id="Shape_00000099660101606044360470000010499138966530645938_" d="M30.9,34.3c0.3-0.1,0.4-0.3,0.3-0.5s-0.3-0.4-0.5-0.3
				c-0.2,0.1-0.3,0.2-0.3,0.4C30.5,34.1,30.7,34.3,30.9,34.3L30.9,34.3z"/>
			<path id="Shape_00000013169542614934721830000017895007963038154145_" d="M71.8,14.5c0.7,0.9,0.9,2.1,0.4,3.2
				c-0.3,0-0.3-0.4-0.3-0.6c-0.5-0.9-0.9-2.1-0.4-3.2C71.8,14,71.7,14.4,71.8,14.5L71.8,14.5z"/>
			<path id="Shape_00000102504816714466617400000005603464293869401728_" d="M11.8,15.6c-0.1,0.6-0.1,1.3,0,2
				c-0.1,0.1-0.1-0.1-0.3-0.1c-1-0.7-0.5-2.1-0.8-3.1c0.1-0.1,0.2-0.1,0.3-0.1C11.5,14.7,11.8,15.1,11.8,15.6L11.8,15.6z"/>
			<path id="Shape_00000100360889574144153420000002974115574296238496_" d="M74,15.7c0.1,0.3-0.1,0.6-0.3,0.7
				c-0.3,0.1-0.5-0.1-0.6-0.3c-0.1-0.3,0.1-0.5,0.3-0.6C73.6,15.4,73.8,15.5,74,15.7L74,15.7z"/>
			<path id="Shape_00000014624019491594636500000002582010762248134807_" d="M10.3,16.8c0,0.3-0.1,0.4-0.3,0.6c-0.1,0-0.4,0-0.5-0.1
				s-0.2-0.4-0.1-0.5c0.1-0.1,0.3-0.3,0.5-0.3C10.1,16.6,10.2,16.6,10.3,16.8z"/>
			<path id="Shape_00000013160818591735968590000006574746161620906943_" d="M74.9,17.2c0.1,0.3,0,0.5-0.3,0.6
				c-0.1,0.1-0.3,0.1-0.4,0c-0.1-0.1-0.3-0.3-0.3-0.4c0.1-0.2,0.3-0.4,0.4-0.4C74.6,16.9,74.8,17.1,74.9,17.2L74.9,17.2z"/>
			<path id="Shape_00000044150677989794418490000000973188731022463896_" d="M73.6,17.3c0.2,0.1,0.1,0.4,0,0.5
				C73.5,18,73.2,18.1,73,18c-0.1-0.1-0.3-0.1-0.3-0.3c0-0.3,0.1-0.5,0.4-0.6C73.2,17.1,73.4,17.1,73.6,17.3L73.6,17.3z"/>
			<path id="Shape_00000071538687952096415400000006683936751214950573_" d="M71.7,17.6c0,0.3,0,0.6-0.3,0.7
				c-0.3,0.1-0.5-0.1-0.6-0.3l0,0l0,0c-0.1-0.3,0.1-0.5,0.4-0.6C71.4,17.3,71.6,17.5,71.7,17.6L71.7,17.6z"/>
			<path id="Shape_00000089563072945776644260000011419234603905592226_" d="M13,17.8c0.1,0.3-0.2,0.4-0.3,0.5
				c-0.2,0-0.4-0.1-0.5-0.3c-0.2-0.2,0.1-0.3,0.1-0.5c0.2-0.1,0.5-0.1,0.6,0.1C13,17.6,13,17.7,13,17.8L13,17.8z"/>
			<path id="Shape_00000008124509351705043760000011271955150661990074_" d="M11.5,17.8c0,0.2-0.1,0.4-0.3,0.5
				c-0.2,0.1-0.4-0.1-0.5-0.3s0-0.4,0.2-0.6l0,0C11.3,17.4,11.4,17.6,11.5,17.8L11.5,17.8z"/>
			<path id="Shape_00000011728809123182848360000008625777337355124629_" d="M65.7,18c0.3,0.6,0.4,1.1,0.5,1.8
				c-0.1,0.5,0.1,1.1-0.3,1.5c-0.4-0.1-0.4-0.6-0.6-0.8c-0.4-0.9-0.1-1.9,0.1-2.8C65.5,17.5,65.5,17.8,65.7,18L65.7,18z"/>
			<path id="Shape_00000113326278281376377460000005256257091389043856_" d="M10.4,18.2c0.1,0.3-0.1,0.4-0.3,0.6
				c-0.3,0.1-0.5-0.1-0.6-0.4c0-0.3,0.1-0.5,0.3-0.6C10,17.8,10.3,18,10.4,18.2L10.4,18.2z"/>
			<path id="Shape_00000051350833597755507110000007917497697717065131_" d="M69.6,19c0.3,0.8,0.4,1.6,0.1,2.4l-0.1,0.1
				c-0.4-0.6-0.8-1.3-1-2c0-0.5,0.1-1,0.3-1.5c0.2-0.1,0.3,0,0.4,0.2C69.2,18.5,69.3,18.8,69.6,19L69.6,19z"/>
			<path id="Shape_00000043452806327273998640000016727634661281010852_" d="M72.7,18.5c0,0.3-0.1,0.5-0.4,0.6
				c-0.3,0.1-0.5-0.1-0.6-0.3l0,0l0,0c-0.1-0.3,0.1-0.5,0.3-0.6C72.4,18.1,72.7,18.3,72.7,18.5z"/>
			<path id="Shape_00000026881804919547542440000014343079457709839771_" d="M11.6,19.3c0,0.3-0.2,0.4-0.4,0.5
				c-0.2,0.1-0.4-0.1-0.5-0.2c-0.1-0.2-0.1-0.4,0-0.6c0.1-0.1,0.3-0.1,0.4-0.2C11.3,19,11.5,19,11.6,19.3z"/>
			<path id="Shape_00000142870372371073657010000011326028291596248710_" d="M12.7,19.2c0.1,0.3-0.2,0.4-0.3,0.5
				c-0.3,0.1-0.4-0.1-0.6-0.3c-0.1-0.2,0.1-0.4,0.3-0.6C12.4,18.8,12.5,19,12.7,19.2z"/>
			<path id="Shape_00000059302872555968857080000001699430663561607835_" d="M73.4,19.1c0,0.3-0.5,0.6-0.6,1
				c-0.3,0.7-0.9,1.2-1.6,1.4c-0.1,0.2-0.4,0.3-0.6,0.3c-0.1-0.5,0.4-0.9,0.7-1.4C71.9,19.7,72.7,19.3,73.4,19.1z"/>
			<path id="Shape_00000161598605258622291590000010946228418992598181_" d="M11.1,20.2c0.3,0.4,0.6,0.8,1,1.2
				c0,0.1-0.1,0.3-0.1,0.3l0,0c-1.2-0.1-2-1.3-2.7-2.2c0.1-0.3,0.4-0.1,0.6-0.1C10.2,19.6,10.8,19.7,11.1,20.2z"/>
			<path id="Shape_00000013187375843787431090000001169631995681865124_" d="M73.8,20.5c0,1.1-0.6,2.1-1.6,2.7
				c-0.3,0.1-0.6,0.4-0.8,0.2c0.6-1.1,1.3-2.1,2.2-2.9H73.8L73.8,20.5z"/>
			<path id="Shape_00000137119092053952273480000002163520184520107192_" d="M68.9,21.2c0.1,0.3-0.1,0.6-0.4,0.8
				c-0.3,0-0.4-0.2-0.6-0.4c-0.1-0.3,0.1-0.5,0.4-0.6c0.1-0.1,0.2-0.1,0.3-0.1C68.8,21,68.9,21.1,68.9,21.2L68.9,21.2z"/>
			<path id="Shape_00000168110759753180794220000009658339201783354815_" d="M9.7,21.5c0.5,0.4,0.9,0.8,1.3,1.2
				c-0.3,0.3-0.7,0-1.1,0c-0.9-0.3-1.5-1-2.3-1.3c0-0.3,0.4-0.2,0.5-0.3C8.7,21.2,9.2,21.2,9.7,21.5L9.7,21.5z"/>
			<path id="Shape_00000138550076207174230790000015914622387459328665_" d="M36.5,14c-1.4-0.6-2.3,0.9-3.8,0.8
				c-0.2,0.1-0.1,0.3-0.3,0.4s-0.2,0-0.3,0c-0.1-0.6-0.3-1.1-0.4-1.8c-0.1-0.3-0.1-0.6-0.2-0.9c-0.8-2.2,2-0.5,2.5-1.8
				c0.5-1.1-0.9-1.3-1.3-2V8.4c-0.4-0.4-0.8-0.5-1.1-1.1c0.2-0.6,0.3-1.3,0.1-2c0-0.1-0.1-0.3-0.3-0.3c-0.1,0-0.1,0-0.1,0
				c-0.5,0.6-0.8,1.2-1.3,1.8c-0.4-0.4-0.9-0.7-1.5-1.1c-0.4-0.1-0.8-0.4-1.1-0.3c-0.1,0.1,0,0.3,0.1,0.4c0.1,0.9,0.5,1.8,1.2,2.5
				L29,8.7c-0.4,1-0.3,2.2-0.4,3.3c-1.1,3-3,5.6-5.4,7.6c-1.5,1.6-3.2,3.2-3.3,5.4c-0.1,0.4,0.1,0.8-0.3,1c-0.8-0.3-1.6-0.7-2.3-1.3
				c-1.1-0.8-2.8-0.7-3.5-2.1c-0.3-0.6,0.1-1.1,0.3-1.6c0.9-0.8,0.7-2.3,0.3-3.2c-0.1,0-0.1,0.1-0.2,0.1c-0.1,1.5-1.3,2.5-0.8,4.2
				c0.1,0.5,0.4,0.8,0.5,1.3c-0.2,0-0.4-0.1-0.6-0.1c-0.5-0.1-1.1-0.3-1.6-0.3c-1.1,0.5-2.7-0.1-3.7,0.9c-0.1,0-0.4,0.1-0.3,0.3
				c0.6,0,1.1,0.1,1.6,0.1c0.9,0.1,1.5-0.6,2.1-0.9h0.1c0.3-0.3,0.7-0.1,1-0.1c1.6,0.2,2.8,0.9,4.1,1.7v0.1
				c-0.5,0.3-1.1,0.4-1.6,0.6c-0.6,0.4-1.1,1-1.4,1.7c-0.4,0.6,0.1,1.2,0.4,1.7c0,0.3,0.1,0.6,0.3,0.6c0.8-0.9,0.1-1.9,0.2-2.9
				c0.3-0.7,0.9-1.1,1.6-1.3c1.5-0.6,2.5,0.6,3.6,1.2c0.1,1.1,0,2.3-0.1,3.4c-0.3,0.1-0.8,0.2-1.1,0.1c-2,0.1-3.5,1.3-5.3,1.8
				c-0.8,0.3-1.8,0.3-2.5,0.6c0.6,0.1,1.3,0.1,1.9-0.1c2.5-0.4,4.4-2.3,7-1.9l0.1,0.1c-0.3,0.6-0.7,1.1-1.2,1.6
				c-0.1-0.3-0.1-0.5-0.4-0.6c-0.2-0.1-0.4,0-0.6,0.2c-0.1,0.1-0.1,0.3,0,0.4c0.1,0.2,0.3,0.3,0.6,0.4c-0.1,0.3-0.3,0.3-0.5,0.5
				c-0.7,1.2-2.1,0.7-3,1.5c-0.1,0.2-0.6,0.3-0.4,0.6c0.9,0.1,1.8-0.1,2.6-0.6c0.9-1,1.9-2,2.8-3c0.1,0.8-0.1,1.6-0.6,2.3
				c-0.2-0.1-0.4-0.3-0.7-0.4c-0.3,0.1-0.4,0.3-0.4,0.5c0.1,0.2,0.2,0.4,0.4,0.5c-0.9,0.6-1.9,0.6-2.9,0.9c-1.8,0.3-3.7,0.4-5.4,0.4
				c-0.9-0.1-1.9,0.3-2.7,0C6,36.3,5,36,4.2,36.5c-0.1,0.1,0,0.3,0,0.4c1.1,0.8,2.7,0.1,4,0.4h9.9c0.7,0.1,1.4-0.1,2-0.4
				c1.3-0.8,2-2,2.7-3.3c0.3-0.5,0.4-1,0.5-1.5c0.3-0.8,1-1.5,1.9-1.5c0.1,1.3-0.1,2.6-0.4,3.9c-0.1,0.8-0.7,1.6-0.4,2.5
				c0.1,0.4,0.5,0.4,0.8,0.4c3-0.1,6.1-0.2,9.3,0.1c0.6,0.1,1.1,0.3,1.7,0.3c0.1-0.1,0.3-0.1,0.1-0.3c-0.1-0.3-0.3-0.6-0.6-0.7
				c-0.1-0.1-0.3-0.1-0.3-0.2c-1.6-0.9-3.5-0.4-5.4-0.4c-0.9,0.1-2,0.3-2.8-0.3c-0.4-0.4-0.1-1.9-0.1-1.9c0.4-1.6,0.9-3.3,1.6-4.9
				c0.1-0.4,0.1-0.8,0.1-1.1c0.2-0.6,0.3-1.2,0.1-1.8c0.2-0.8,0.4-1.6,0.8-2.3c0.1-0.4,0.3-0.8,0.4-1.1c0.1-0.4,0.3-0.9,0.5-1.3
				c0.8,0.5,1.6,0.5,2,1.5l0.4,2.1c0,0.1,0.1,0.4,0.3,0.3c0.6-0.4,0.4-1.4,0.4-2c0.1-0.8-0.4-1.1-0.6-1.8c-0.2-0.3-0.3-0.5-0.4-0.8
				c-0.1-0.6-1.3-0.9-1.1-1.6c0.1-0.6,0.4-1.1,0.8-1.5c0.1,0.1,0.1,0.1,0.1,0.2l0.3-0.2v-2.1c0.8,0,2,0.1,2.8,0.1
				c0.3,0.1,0.4,0.3,0.6,0.3l0.2-0.3l2-0.4c-0.9,0.1-1.4-0.9-2.2-0.9L36.5,14z"/>
			<path id="Shape_00000112625526483156328960000002674584650009651619_" d="M16.9,21.9c0,0.3-0.1,0.5-0.4,0.6
				c-0.2-0.1-0.3-0.1-0.5-0.3c-0.2-0.2,0.1-0.5,0.3-0.6C16.6,21.7,16.8,21.7,16.9,21.9L16.9,21.9z"/>
			<path id="Shape_00000000929346430336112490000007338360684675891132_" d="M15.3,21.9c0.1,0.1,0.2,0.4,0.1,0.6
				c-0.2,0.1-0.4,0.3-0.6,0.1c-0.2-0.2-0.3-0.3-0.2-0.5C14.7,21.9,15,21.7,15.3,21.9L15.3,21.9L15.3,21.9z"/>
			<path id="Shape_00000041260545372341324280000006790548400227861897_" d="M69.3,22.6c0.1,0.3-0.1,0.5-0.3,0.6
				c-0.3-0.1-0.6-0.1-0.6-0.4c0.1-0.3,0.3-0.4,0.6-0.4C69.1,22.4,69.2,22.5,69.3,22.6L69.3,22.6z"/>
			<path id="Shape_00000151524586877514170440000018072588759218219192_" d="M70.6,22.6c0.1,0.1,0.3,0.3,0.1,0.4
				c-0.1,0.1-0.2,0.1-0.3,0.2c-0.3,0.1-0.5,0-0.6-0.3l0,0l0,0c-0.1-0.3,0.2-0.4,0.4-0.5S70.4,22.5,70.6,22.6L70.6,22.6z"/>
			<path id="Shape_00000092448598781729228660000006596071820436355979_" d="M8.9,22.9c-0.1,0.3-0.3,0.4-0.6,0.4H8.3
				c-0.1-0.1-0.1-0.2-0.2-0.3c0-0.2,0.1-0.4,0.3-0.4C8.6,22.5,8.9,22.6,8.9,22.9z"/>
			<path id="Shape_00000086689763341417642790000011448986253474252198_" d="M17.4,23.3c0,0.2-0.3,0.4-0.4,0.5
				c-0.3,0-0.4-0.1-0.6-0.4c0-0.2,0.1-0.4,0.3-0.5C17,22.9,17.3,23,17.4,23.3L17.4,23.3z"/>
			<path id="Shape_00000100377956369549039020000014682683935056519347_" d="M15.9,23.1c0.1,0.1,0.1,0.3,0.1,0.4
				c-0.1,0.1-0.4,0.4-0.6,0.2c-0.1-0.1-0.3-0.3-0.3-0.5c0.1-0.1,0.3-0.3,0.4-0.3C15.6,22.9,15.8,23,15.9,23.1L15.9,23.1z"/>
			<path id="Shape_00000112608593315443838160000002714269916427618977_" d="M74.4,23.5c0,0.2-0.1,0.4-0.3,0.5
				c-0.2,0.1-0.4,0-0.6-0.1c-0.1-0.1-0.1-0.3-0.1-0.4c0.1-0.2,0.3-0.3,0.5-0.3C74.1,23.1,74.2,23.3,74.4,23.5L74.4,23.5z"/>
			<path id="Shape_00000005977274154426640100000009552825118085175967_" d="M76,23.6c-0.1,0.3-0.3,0.4-0.5,0.4
				c-0.1,0-0.4-0.1-0.4-0.3c0-0.2,0.1-0.3,0.3-0.4C75.6,23.3,75.9,23.3,76,23.6L76,23.6L76,23.6z"/>
			<path id="Shape_00000027595501859573262150000013423374593401153410_" d="M11.8,24c0.1,0.3-0.1,0.6-0.3,0.6l0,0l0,0
				c-0.2,0.1-0.4,0-0.5-0.1c-0.1-0.1-0.2-0.3-0.1-0.5c0.1-0.3,0.3-0.2,0.4-0.3C11.6,23.8,11.7,23.9,11.8,24L11.8,24z"/>
			<path id="Shape_00000090982472073155774820000015864939097319463300_" d="M13,24.3c0.1,0.2-0.1,0.3-0.2,0.4
				c-0.1,0.1-0.3,0.1-0.4,0c-0.2-0.1-0.4-0.4-0.2-0.6C12.4,23.7,12.9,23.9,13,24.3L13,24.3z"/>
			<path id="Shape_00000136372071310213086480000000986555845829334201_" d="M72.9,24.1c-0.1,0.3-0.2,0.4-0.4,0.6
				c-0.2,0.1-0.4-0.1-0.5-0.3c0-0.2,0.1-0.4,0.3-0.5C72.5,23.9,72.8,24,72.9,24.1L72.9,24.1z"/>
			<path id="Shape_00000155122108513590477210000005166792496876722359_" d="M75,24.5c-0.1,0.3,0,0.5-0.3,0.6
				c-0.2,0.1-0.4,0-0.6-0.1c-0.1-0.1-0.2-0.4-0.1-0.5c0.1-0.3,0.4-0.4,0.6-0.3C74.8,24.3,74.8,24.5,75,24.5z"/>
			<path id="Shape_00000055682286250488816060000015495345630829628327_" d="M10.8,25c0.1,0.2-0.1,0.3-0.2,0.4
				c-0.2,0.1-0.4,0.1-0.5-0.1C10,25.2,10,25,10.1,24.8C10.3,24.5,10.8,24.8,10.8,25z"/>
			<path id="Shape_00000136400429926268850550000005059947879553991811_" d="M73.4,25.5c0.1,0,0.1,0.2,0,0.3c-0.6,0.4-1.5,0.3-2-0.1
				c-0.3-0.2-0.6-0.4-1-0.6c0.1-0.3,0.6-0.3,0.9-0.4C72,24.8,72.5,25.5,73.4,25.5L73.4,25.5z"/>
			<path id="Shape_00000091696570386240470700000009092493770879387040_" d="M12.1,25.3c0.1,0.2-0.1,0.3-0.1,0.4s-0.3,0.1-0.4,0.1
				c-0.2-0.1-0.3-0.3-0.3-0.6c0.1-0.3,0.3-0.3,0.6-0.3C12,25,12.1,25.2,12.1,25.3z"/>
			<path id="Shape_00000062193975325123148250000009764286481085948562_" d="M14.3,25.5c0.1,0.3-0.1,0.4-0.3,0.6
				c-0.2,0.1-0.3-0.1-0.5-0.1c-0.1-0.2-0.3-0.4-0.1-0.6C13.7,25,14.1,25.2,14.3,25.5z"/>
			<path id="Shape_00000070802052379780678080000013152855657760210312_" d="M43.2,26.5c-0.1,0.5-0.9-0.1-0.8,0.6
				c0.1,0.5,0.3,1,0.5,1.4c0.3,0.3,0.1,0.9,0.1,1.3c-0.3,0.4-0.6,0.6-0.9,0.8c-0.7-0.1-1.8,0.4-2.1-0.5c-0.2-0.4-0.3-0.8-0.4-1.2
				c0.1-0.1,0.2-0.1,0.3-0.1c0-0.2-0.2-0.3-0.2-0.4c0.8-0.1-0.3-0.9,0.4-0.9c0.6,0.6,1.5,0.4,2,1.1c0.1,0.1,0.3,0.2,0.4,0.3
				c-0.1-0.6-0.4-1.2-0.5-1.8c-0.1-0.3,0.1-0.6,0.3-0.8C42.7,25.8,43,26.3,43.2,26.5L43.2,26.5z"/>
			<path id="Shape_00000160168008944393362190000011823952540238821030_" d="M16.5,26.4c0.1,0.3-0.1,0.4-0.3,0.5s-0.3-0.1-0.4-0.3
				c-0.1-0.3,0.1-0.4,0.3-0.5C16.3,26.1,16.5,26.2,16.5,26.4z"/>
			<path id="Shape_00000148641750139850520570000010637239750938134419_" d="M32,26.6c0.3,0.9,0.2,2-0.3,2.8c0,0.2,0.1,0.5-0.3,0.5
				c-0.7-0.9-0.2-2.3,0.1-3.2C31.6,26.5,31.9,26.4,32,26.6L32,26.6z"/>
			<path id="Shape_00000040555665772939726580000003444070960797602194_" d="M53.4,27.1c0.4,0.8,0.4,1.6,0.1,2.3l-0.2,0.2
				c-0.3-0.6-0.5-1.1-0.6-1.8c0.1-0.4,0.3-0.9,0.3-1.3C53.3,26.4,53.3,26.9,53.4,27.1z"/>
			<path id="Shape_00000167355255780703437480000000029877986382543550_" d="M18.4,27.4c-0.1,0.3-0.6,0.4-0.9,0.6
				c-0.6,0.4-1.5,0.6-2.2,0.4c0.6-0.9,1.8-1.5,2.8-1.2C18.3,27.3,18.4,27.2,18.4,27.4z"/>
			<path id="Shape_00000178920864704912162270000018211380289394265265_" d="M8.2,28.3c0.9,0.6,1.2,1.6,1.7,2.5
				c0.1,0.1,0.3,0.1,0.3,0.3c-0.2,0.1-0.4-0.1-0.7-0.1c-0.9-0.5-1.6-1.5-1.5-2.6C7.9,28.3,8.1,28.3,8.2,28.3L8.2,28.3z"/>
			<path id="Shape_00000122714274179807771700000002641364687785219007_" d="M52.5,29.1c0,0.3,0,0.5-0.3,0.6
				c-0.3,0.1-0.5-0.1-0.6-0.3l0,0l0,0c-0.1-0.2,0.1-0.3,0.1-0.4C52,28.8,52.2,28.8,52.5,29.1L52.5,29.1L52.5,29.1L52.5,29.1z"/>
			<path id="Shape_00000158737591288914255530000016933751508080243859_" d="M63,30.4c0.1-0.4,0.1-0.9,0.2-1.4
				c0.1-0.2,0.1-0.4,0.1-0.5c0.6-0.8,1.8-0.6,2.8-0.5c0.4,0.1,0.8,0.3,1.3,0.3c0.2-0.1,0.4-0.2,0.6-0.1c0.8-0.4,0.3-1.4,0.3-2.1
				L68,25.3c-0.1-0.2-0.1-0.3-0.2-0.5c-0.1-0.2-0.3-0.5-0.4-0.7c-0.4-1.1-1.3-1.8-2-2.7c-1.3-1.6-3.3-2.6-5.3-3.2
				c-2-0.6-4,0.3-5.8,0.9c-0.5-0.1-0.9-0.6-1-1.1c-0.1-0.9,0.1-1.8,0.5-2.7c0.2-0.6,0.4-1.1,0.7-1.7c0.5-1.4,0.9-2.8,1-4.4
				c-0.1-0.9-0.6-1.6-1.3-2c-0.5-0.2-1-0.1-1.4,0.3c-0.4,0.6-0.9,1.1-1.6,1.5c-0.1,0.4,0.5,0.1,0.6,0.3c0.6,0.1,1.2-0.1,1.6,0.3
				c-0.1,0.9-0.4,1.9-1.1,2.6c-0.9,1.2-1.6,2.5-2.3,3.9H50l0.2,6.2c0.8,1.3,1.8,2.8,3.3,3.3c0.8,0.6,1.8,1.5,2.9,0.9
				c0.6-0.2,0.6,0.6,0.9,0.9c0.3,0.9-0.4,1.6-0.4,2.5l-0.6,1.4c-0.8,1.5-1.5,3-2.6,4.3c-0.4,0-0.6,0.4-1,0.4
				c-0.2,0.3-0.6,0.1-0.8,0.2c-0.8,0.3-1.9,0.1-2.4,0.9c0.1,0.1,0.1,0.1,0.2,0.1c1.5,0,3.2,0.1,4.9,0.1c0.2-0.1,0.4-0.3,0.4-0.5
				c-0.3-0.4,0.1-0.8,0.3-1.1c0.1-0.6,0.5-1,0.7-1.6c0.5-1,1.1-2,1.7-3.1l0.8-1.3c0.2-0.5,0.5-0.9,0.8-1.4c0.2-0.2,0.3-0.4,0.4-0.7
				c0-0.2-0.1-0.4-0.3-0.5c0.2-0.2,0.4-0.1,0.7-0.2c0.7,0.3,1.2,0.9,1.4,1.6l0.3,0.6l0.1,0.3l-0.1,0.8l0.1,0.8
				c0.1,1.2,0,2.5-0.3,3.7c-0.4,1.5-2.1,1.3-3.3,1.6c-0.3,0.2-0.9,0.1-0.9,0.6c1.5,0.3,3.2,0.1,4.7,0.1c0.3-0.1,0.3-0.3,0.4-0.6
				c0.1-0.3,0.4-0.6,0.3-0.9c-0.3-0.4,0-0.9-0.1-1.4c0.1-0.1,0.1-0.3,0-0.5c0.2-0.8,0.1-1.6,0.3-2.3L63,30.4L63,30.4z"/>
			<path id="Shape_00000078017890820028624840000016136296822356712364_" d="M75.3,29.4c-0.8,1.1-1.6,2.4-3,2.8
				c-0.1,0-0.2,0.1-0.3-0.1c0.8-0.9,1.3-2.3,2.7-2.7C74.9,29.4,75.1,29.3,75.3,29.4L75.3,29.4z"/>
			<path id="Shape_00000091716832579998316860000005812340837950687160_" d="M6.9,30.7c-0.1,0.1,0,0.3-0.3,0.4
				c-0.2,0.1-0.4,0-0.5-0.3c-0.1-0.3,0.1-0.4,0.3-0.6l0,0C6.6,30.3,6.9,30.4,6.9,30.7L6.9,30.7z"/>
			<path id="Shape_00000004533635664158318900000001569587226875177882_" d="M14.2,31c0.1,0.3-0.2,0.3-0.3,0.3
				c-1,0.3-2.1,0.1-2.9-0.8c0-0.1,0-0.2,0.1-0.3C12.1,30.6,13.3,30.4,14.2,31z"/>
			<path id="Shape_00000134956230687511455550000009449491731489054650_" d="M8.3,30.7c0.1,0.1,0.1,0.3,0.1,0.4
				c-0.1,0.2-0.4,0.3-0.6,0.3c-0.1-0.1-0.3-0.2-0.3-0.3c0.1-0.3,0.2-0.4,0.4-0.5C8,30.5,8.2,30.5,8.3,30.7L8.3,30.7z"/>
			<path id="Shape_00000080208525514335136850000009788850909472060552_" d="M31.8,30.8c0.1,0.3-0.1,0.4-0.3,0.5
				c-0.2,0.1-0.4-0.1-0.5-0.2c-0.1-0.2,0-0.4,0.2-0.5C31.4,30.5,31.7,30.6,31.8,30.8L31.8,30.8z"/>
			<path id="Shape_00000113317788178244845990000014045225935709592243_" d="M76.3,30.9c0.1,0.3-0.1,0.4-0.3,0.5
				c-0.2,0.1-0.3,0-0.5-0.1c0-0.1-0.2-0.3-0.1-0.4c0.1-0.2,0.3-0.3,0.6-0.3C76.1,30.7,76.1,30.8,76.3,30.9z"/>
			<path id="Shape_00000074429195398854367670000013761070812284910263_" d="M77.9,30.8c0.1,0.3,0,0.4-0.1,0.6
				c-0.1,0.2-0.3,0.3-0.4,0.1C77.2,31.3,77,31.2,77,31s0.3-0.4,0.4-0.4C77.7,30.5,77.7,30.8,77.9,30.8z"/>
			<path id="Shape_00000019656219172487272720000011941518090708816547_" d="M5.9,31.5c0,0.2-0.1,0.3-0.2,0.4
				c-0.1,0.1-0.3,0.1-0.4,0.1C5.2,32,5,31.9,5,31.7c0.1-0.3,0.2-0.4,0.4-0.5C5.6,31.2,5.8,31.3,5.9,31.5L5.9,31.5z"/>
			<path id="Shape_00000175318758139824330140000006753731542119817905_" d="M58.6,31.5c0,0.1,0,0.2,0,0.3c-0.1,0.2-0.4,0.4-0.6,0.3
				c-0.1-0.1-0.3-0.3-0.3-0.5c0.1-0.3,0.4-0.3,0.7-0.2C58.5,31.4,58.5,31.5,58.6,31.5L58.6,31.5z"/>
			<path id="Shape_00000147931750995257364660000011294179789583057811_" d="M9.9,31.9c-0.1,0.2-0.1,0.4-0.4,0.4S9.2,32.1,9.1,32
				c0-0.3,0-0.4,0.2-0.6c0.3-0.1,0.5,0.1,0.6,0.3C10,31.8,10,31.9,9.9,31.9L9.9,31.9z"/>
			<path id="Shape_00000070095595054843394260000001173982208833150637_" d="M7.5,32c0.1,0.2-0.1,0.4-0.3,0.6
				c-0.3,0.1-0.6-0.1-0.7-0.4c0-0.3,0.2-0.5,0.4-0.6C7.2,31.6,7.4,31.9,7.5,32L7.5,32z"/>
			<path id="Shape_00000118383116207516219680000015064542161868527021_" d="M60.3,31.9c0.1,0.3,0,0.5-0.3,0.6
				c-0.3,0.1-0.6-0.1-0.7-0.4c0.1-0.2,0.1-0.5,0.4-0.5C60,31.7,60.2,31.8,60.3,31.9L60.3,31.9z"/>
			<path id="Shape_00000095337859966356156060000013176118089228568235_" d="M8.7,32c0.1,0.2-0.1,0.3-0.1,0.4
				c-0.1,0-0.2,0.1-0.4,0.1c-0.2-0.1-0.3-0.2-0.3-0.4c0-0.2,0.1-0.4,0.3-0.5C8.4,31.7,8.6,31.8,8.7,32z"/>
			<path id="Shape_00000078021611910596597370000017117827715162693038_" d="M74.9,32.2c-0.1,0.2-0.3,0.3-0.4,0.4
				c-0.2,0.1-0.3-0.1-0.5-0.2c-0.2-0.1-0.1-0.3,0-0.4c0.1-0.3,0.4-0.3,0.7-0.1C74.8,31.9,74.9,32,74.9,32.2L74.9,32.2z"/>
			<path id="Shape_00000122701195553579161100000002565553931412560309_" d="M76.8,32.3c-0.1,0.3-0.4,0.4-0.6,0.4
				c-0.3-0.1-0.5-0.3-0.3-0.6C76,32,76,32,76.2,31.9C76.5,31.9,76.7,32,76.8,32.3C76.8,32.3,76.8,32.3,76.8,32.3z"/>
			<path id="Shape_00000107546674088654133470000002750219462662708145_" d="M64.9,32.5c0.1,0.3-0.2,0.4-0.4,0.6
				c-0.2,0-0.3-0.1-0.5-0.2c-0.1-0.3,0.1-0.5,0.4-0.6C64.6,32.2,64.8,32.4,64.9,32.5L64.9,32.5z"/>
			<path id="Shape_00000029744000782680010350000010283125774434422407_" d="M58,32.8c0.1,0.1,0.1,0.3,0.1,0.3
				c-0.1,0.1-0.4,0.4-0.6,0.2c-0.2-0.1-0.3-0.3-0.3-0.5c0.1-0.2,0.4-0.3,0.6-0.1C58,32.7,58,32.8,58,32.8L58,32.8z"/>
			<path id="Shape_00000038411704240062897850000009320192357065752990_" d="M59.4,33c0.1,0.2-0.1,0.3-0.2,0.4
				c-0.2,0.2-0.4,0-0.6-0.1c-0.1-0.1-0.1-0.3,0-0.4c0.1-0.1,0.2-0.2,0.3-0.2C59.2,32.8,59.4,32.8,59.4,33L59.4,33z"/>
			<path id="Shape_00000071548920677233577910000014847764859778298014_" d="M16.9,33c0.1,0.1,0,0.3-0.1,0.5
				c-0.1,0.2-0.4,0.3-0.6,0.1C16,33.5,16,33.2,16,33c0.1-0.1,0.1-0.3,0.3-0.3C16.6,32.7,16.8,32.9,16.9,33L16.9,33z"/>
			<path id="Shape_00000084489601177335191220000007544399702295312263_" d="M67.6,33.1c0.1,0.3-0.2,0.4-0.4,0.4
				c-0.3,0.1-0.4-0.1-0.6-0.3c0-0.1,0.1-0.3,0.2-0.4C67.2,32.7,67.4,32.9,67.6,33.1L67.6,33.1z"/>
			<path id="Shape_00000155856390386727883810000010508745256437502117_" d="M66.2,33.1c0.1,0.3-0.2,0.4-0.3,0.5
				c-0.2,0.1-0.4,0.1-0.6-0.1c-0.1-0.1-0.1-0.3-0.1-0.4c0.1-0.1,0.3-0.3,0.4-0.3C65.9,32.8,66.1,32.9,66.2,33.1z"/>
			<path id="Shape_00000029724349981295041070000004518955029376076711_" d="M77.5,33.4c0.1,0.4-0.4,0.2-0.6,0.3
				c-1.1,0.6-2.4,0.1-3.4-0.3c0.1-0.3,0.4-0.2,0.6-0.3c1.1-0.7,2.1,0.1,3.3,0.2L77.5,33.4L77.5,33.4z"/>
			<path id="Shape_00000159457447795214897900000015350651259786620053_" d="M8.9,33.1l-0.1,0.2c-0.9,0.6-2.1,0.8-3.2,0.6l-0.1-0.1
				c1-0.6,2.2-0.9,3.3-0.7L8.9,33.1z"/>
			<path id="Shape_00000032609542672676922700000001188594061615596987_" d="M70.1,33.3c0,0.2-0.1,0.4-0.3,0.5
				c-0.3,0.1-0.5,0-0.6-0.3c-0.1-0.2,0.1-0.4,0.3-0.5C69.8,32.9,70.1,33.1,70.1,33.3L70.1,33.3L70.1,33.3z"/>
			<path id="Shape_00000117638227785391118490000015758901243923152261_" d="M13.4,33.4c-0.1,0.2-0.1,0.4-0.3,0.5
				c-0.3,0.1-0.5-0.1-0.6-0.3c-0.1-0.3,0.1-0.4,0.3-0.5C13,32.9,13.3,33.2,13.4,33.4L13.4,33.4z"/>
			<path id="Shape_00000149354080602914179150000011311007752873130405_" d="M11.7,33.5c0.1,0.2-0.1,0.3-0.1,0.4
				C11.4,34,11.2,34,11,33.9c-0.2-0.1-0.3-0.4-0.3-0.6c0.1-0.1,0.3-0.2,0.4-0.3C11.4,33.1,11.6,33.2,11.7,33.5L11.7,33.5z"/>
			<path id="Shape_00000150070661483939614200000013034462241957096617_" d="M71.9,34.1c0,0.2-0.2,0.4-0.4,0.4
				c-0.2,0-0.4-0.1-0.5-0.3c-0.1-0.2-0.1-0.4,0.1-0.5c0.1-0.1,0.3-0.1,0.3-0.1C71.7,33.7,71.8,33.9,71.9,34.1L71.9,34.1z"/>
			<path id="Shape_00000013871286223270830020000002276177751550270366_" d="M9.8,33.8c0.1,0.2-0.1,0.3-0.1,0.4
				c-0.1,0.4-0.3,0.8-0.6,1.1c-0.5,0.6-1.1,0.6-1.8,0.8l-0.1-0.2c0.6-0.9,1.5-1.6,2.5-2.1L9.8,33.8L9.8,33.8z"/>
			<path id="Shape_00000030468024715572476560000000254100777428143787_" d="M70.6,34.4c0.1,0.3-0.2,0.4-0.4,0.5
				c-0.2,0-0.4-0.1-0.5-0.3c-0.1-0.3,0.2-0.4,0.3-0.5C70.3,34,70.6,34.1,70.6,34.4L70.6,34.4z"/>
			<path id="Shape_00000011032745274779308480000013088343463502472892_" d="M12.7,34.4c0,0.1,0,0.1,0.1,0.1c0,0.3-0.3,0.4-0.4,0.5
				c-0.2,0-0.4-0.1-0.6-0.3c-0.1-0.2,0-0.4,0.2-0.6h0.1C12.4,34.1,12.7,34.1,12.7,34.4L12.7,34.4z"/>
			<path id="Shape_00000008843298710302115250000002810654050213762465_" d="M75.3,35.1c0.3,0,0.3-0.3,0.6-0.4
				c0.3-0.1,0.5,0.1,0.6,0.3c0.1,0.3-0.1,0.4-0.3,0.6s-0.6-0.1-0.5,0.2c0.2,0.1,0.3,0.3,0.4,0.5c-0.1,0.1-0.3,0.1-0.3,0
				c-0.8-0.3-1.5-0.8-1.8-1.6c-0.1-0.3-0.6-0.4-0.3-0.6C74.2,34.1,74.9,34.5,75.3,35.1L75.3,35.1z"/>
			<path id="Shape_00000094599630699602358970000010606505942694830510_" d="M77.7,34.3c0.1,0.1,0.1,0.3,0,0.5
				c-0.1,0.3-0.5,0.1-0.8,0.1c-0.1-0.1-0.3-0.3-0.2-0.4c0.1-0.1,0.2-0.3,0.4-0.3C77.3,34.1,77.5,34.2,77.7,34.3L77.7,34.3z"/>
			<path id="Shape_00000061456635494712165200000005903716625300643978_" d="M68.6,35.7c0.3,0.3,0.4,0.6,0.6,1
				c-0.1,0.1-0.2,0.1-0.3,0.1c-0.8-0.5-2-1-2.3-2c-0.1-0.1-0.3-0.3-0.3-0.4c0.6-0.1,1.3,0.4,1.7,0.7C68.2,35.3,68.4,35.4,68.6,35.7
				L68.6,35.7z"/>
			<path id="Shape_00000022552421928017567020000010357041012542216638_" d="M11.3,34.8c0.1,0.3-0.1,0.4-0.3,0.5
				c-0.2,0.1-0.4,0-0.6-0.2c-0.2-0.3,0.1-0.5,0.4-0.6C11,34.3,11.2,34.6,11.3,34.8L11.3,34.8z"/>
			<path id="Shape_00000015324327681707895910000011658530482860527232_" d="M71.7,35.3c0,0.1-0.2,0.3-0.3,0.4
				c-0.2,0-0.4,0.1-0.6-0.1c-0.1-0.1-0.2-0.3,0-0.4C71.2,34.8,71.5,35.1,71.7,35.3L71.7,35.3z"/>
			<path id="Shape_00000122715674434171952770000015322076768695429524_" d="M77.9,35.6c0.1,0.3-0.1,0.5-0.4,0.6
				c-0.3,0.1-0.5-0.1-0.6-0.3c-0.1-0.1,0-0.3,0-0.5c0.2-0.2,0.4-0.3,0.6-0.2C77.7,35.5,77.8,35.6,77.9,35.6L77.9,35.6z"/>
			<path id="Shape_00000093864371650168748940000009643405541847007130_" d="M60.6,39.2c0,0.3-0.6,0.3-0.8,0.4
				c-0.8,0.3-1.7,0.5-2.7,0.4v-0.1C58.1,39.1,59.4,38.8,60.6,39.2z"/>
			<path id="Shape_00000096749411999214034830000016635125368802918053_" d="M24,40.3c0,0.3-0.2,0.4-0.4,0.4c-0.2,0-0.3-0.1-0.4-0.3
				c-0.1-0.3,0.1-0.4,0.3-0.6C23.8,39.9,24,40.1,24,40.3z"/>
			<path id="Shape_00000115489953719328718320000012483681472599189387_" d="M60.2,40.5c0.1,0.3-0.1,0.6-0.4,0.6
				c-0.2,0-0.4-0.1-0.5-0.2c-0.2-0.1-0.1-0.3-0.1-0.4c0.1-0.3,0.4-0.4,0.7-0.3C60,40.3,60.1,40.4,60.2,40.5z"/>
			<path id="Shape_00000036943413544834094680000007580951288134953123_" d="M65.2,40.6c-0.6,0.5-1.4,0.8-2.1,0.9h-1.3l-0.1-0.1
				c0.8-1,2.3-1,3.7-0.9L65.2,40.6z"/>
			<path id="Shape_00000000906201529500543780000014913367837569213113_" d="M17.2,41.2c0,0.2-0.1,0.4-0.3,0.5
				c-0.3,0-0.4-0.1-0.5-0.4c0-0.1,0.1-0.3,0.2-0.4C16.8,40.7,17.1,41,17.2,41.2L17.2,41.2z"/>
			<path id="Shape_00000098905211622308342530000011400313457988124825_" d="M18.4,41.5c0.1,0.1-0.1,0.2-0.1,0.3
				c-0.1,0.1-0.3,0.1-0.5,0c-0.2-0.1-0.3-0.3-0.1-0.4l0,0c0.1-0.1,0.3-0.1,0.3-0.3C18.2,41.2,18.4,41.3,18.4,41.5z"/>
			<path id="Shape_00000067935439695027275960000004622513399673225392_" d="M8.8,44c-0.3,0.3-0.6-0.1-0.9-0.3
				C7,43.3,7,42.3,6.2,41.7c0.1-0.3,0.3,0,0.5,0C6.9,41.8,7,41.9,7.2,42C8.1,42.5,8.2,43.3,8.8,44L8.8,44z"/>
			<path id="Shape_00000031894393936345651660000003757877695921024139_" d="M81.9,34.3c-0.4-0.7-1.1-1.1-1.9-1
				c-0.6,0.1-1.1,0.4-1.4,1c-0.1,0.5,0.1,1.1,0.5,1.4c0.2,0.1,0.4,0.1,0.5-0.1c0.1-0.3-0.3-0.3-0.3-0.6c-0.1-0.3,0-0.7,0.3-0.9
				c0.3-0.3,0.7-0.1,1-0.1c0.3,0.2,0.6,0.4,0.8,0.8c0.1,0.4,0.1,0.9,0,1.3c-0.3,0.6-0.9,1.1-1.6,1.3c-2.1,0.3-24.9,0.2-24.9,0.2
				c-2.7,0.3-5.7-0.5-8,0.9c-1.1,0.5-1.6,1.6-1.8,2.7c-0.7,0.6-1.3,1.3-2,2L43,43c0.1-0.6,0.4-1.1,0.5-1.8c0.4-0.5,0.4-1.2,0.6-1.8
				c0.9-1.5,1.8-3.1,3.3-4.2c0.6-0.8,1.7-0.7,2.7-0.7c1.1,0.5,2.3,0.6,3.5,0.5c0.1-0.1,0.1-0.1,0.1-0.2c-0.4-0.3-0.9-0.4-1.3-0.8
				c-1-0.5-2,0.1-3,0.1c-0.1-0.1-0.1-0.1-0.1-0.1c0.9-0.7,2-1.3,3.1-1.6c0.9-0.4,1.8-0.8,2.7-1.1c0.4,0,0.8-0.3,1.1-0.1l1.3-0.4
				c0.1,0,0.1,0.1,0.2,0.1c1.1-0.4,2.5,0,3.9-0.1l0.2,0.1l1.2,0.3c0.4,0.1,0.6,0.6,1.1,0.6c0.3-0.4-0.3-0.5-0.4-0.8
				c0.6-0.1,1.1,0,1.7,0.3l-0.3,0.3c-0.1,0.3,0.1,0.5,0.3,0.6c0.3,0.1,0.3-0.1,0.4-0.1c0.3-0.3,0-0.4,0.1-0.6
				c1.8,0.3,3.6,0.8,5.3,1.5c0.4,0.3,0.9,0.4,1.5,0.5c-0.6-0.4-1.2-0.8-1.9-1c-0.4-0.3-1-0.3-1.3-0.6c0.1-0.1,0.3-0.1,0.3-0.2
				c0.9-0.2,1.6-0.7,2.1-1.4c0.1-0.1,0.3-0.1,0.3-0.3C72,29.7,71.7,30,71.4,30c-1.1,0.2-1.5,1.5-2.5,1.6L65,30.7
				c-0.6-0.1-1.3-0.2-1.9-0.4l-1.4-0.1h-2.5c0-0.1-0.1-0.1-0.1-0.1c0.9-0.3,1.7-0.8,2.6-1l6.6-3.2c0.7-0.6,1.3-1.3,1.9-2.1
				c0-0.2-0.1-0.4-0.3-0.5c-0.2-0.1-0.4-0.1-0.5,0.1c-0.3,0.3,0,0.5,0,0.8c-0.3,0.4-0.7,0.8-1.1,1.1c-0.1,0-6.9,3.1-6.9,3.1
				c-1,0.5-2,0.9-3.1,1.1l-1.5,0.3c-0.1,0.3-0.3,0.5-0.6,0.6c-0.4,0.1-0.8,0.3-1.1,0.3c-3.3,1.3-6.6,2.6-9.2,5.2
				c0.1-0.3,0.3-0.7,0.3-1.1S46.1,34,46,33.6c-0.1-0.1-0.3-0.6-0.2-0.7l-0.4,0.3c-0.3,0.7-0.4,1.5-0.2,2.1c0.1,0.4,0.4,1,0.1,1.4
				c-1.2,1.5-1.9,3.2-2.7,4.9c-0.3-0.1-0.4-0.3-0.6-0.6c0.9-1.1,1.5-2.3,1.8-3.7c0.2-0.1,0.1-0.4,0.3-0.6c-0.1-0.4,0.3-0.8,0-1.1
				c0.1-0.6-0.8-1.1-0.2-1.4l-0.5,0.3c-1.1,1.4,0.6,3.5-0.7,4.9v0.1c-0.3,0.4-0.6,0.9-1,1.2c-0.6-0.3-0.8-0.9-1.2-1.5
				c-0.5-0.7-0.6-1.6-0.3-2.3c0.1-0.7-0.3-1.3-0.4-2l-0.3-0.1c-0.6,0.8-0.8,2-0.4,3c0.3,0.4,0.3,1.1,0.6,1.5
				c0.3,0.7,0.6,1.3,1.1,1.9c0.1,0.3-0.1,0.3-0.3,0.4c-0.3-0.2-0.3-0.6-0.5-0.8c-0.8-1.7-1.9-3.2-3.2-4.6c-0.1-0.3-0.3-0.4-0.1-0.7
				c0.4-0.5,0.6-1.3,0.3-1.9c-0.1-0.1-0.2-0.3-0.2-0.4l-0.3-0.4c0.1,0.9-0.5,1.6-0.3,2.6v0.1c-2.6-2-5.4-3.7-8.3-5.1L27.9,31
				c0.9,0.4,1.8,0.8,2.7,1.4c0.9,0.4,1.7,0.8,2.5,1.3c3.4,1.9,5.7,5.1,7.2,8.5c0,0.3,0.3,0.6,0.1,0.9c-0.6-0.7-1.2-1.3-1.9-1.9
				c-0.1-1.2-0.8-2.2-1.9-2.8c-0.4-0.6-1.2-0.6-1.8-0.8l-9.1-0.1c-7.4-0.1-14.2,0.3-21.5,0.1c-1-0.1-2.3-0.4-2.6-1.5
				c-0.2-0.4-0.2-0.9,0-1.4c0.3-0.4,0.8-0.7,1.3-0.7c0.4,0.1,0.7,0.4,0.8,0.7c0,0.3-0.3,0.6-0.4,0.9c0,0.1,0.1,0.3,0.3,0.3
				c0.3-0.2,0.6-0.4,0.6-0.8c0-0.2,0.1-0.4-0.1-0.6c-0.2-0.5-0.6-0.9-1.2-1c-0.6-0.1-1.3,0.1-1.7,0.6c-0.6,0.5-0.6,1.4-0.4,2.1
				c0.5,1.1,1.5,1.9,2.7,2L28,38.5c2.4,0.1,5.1-0.3,7.5,0.2c0.9,0.3,1.7,0.9,2,1.9c0,0.1-0.1,0-0.2,0c-2.1-1.3-4.7-1.8-7.1-1.5
				c-0.9,0.1-1.9,0.3-2.8,0.6c-0.4,0.1-0.9-0.1-1.2-0.4c-0.9-0.8-2.5-0.8-3.7-0.4v0.2c1.2-0.1,2,0.9,3,1.1c0.3,0.1,0.4-0.3,0.7,0
				c-1.1,0.6-2.3,1.1-3.5,1.6c-0.4-0.1-0.6-0.4-0.9-0.6c-0.5-0.5-1.3-0.3-2-0.4c-0.3,0.1-0.4-0.1-0.6,0c0.3,0.4,0.6,0.7,1.1,0.8
				c0.6,0.3,1.3,0,1.9,0.4c-0.2,0.1-0.3,0.3-0.5,0.4c-1.2,0.4-2.1,1.5-3.5,1.5c-1.3,0.2-2.7-0.3-3.7-1.2c-0.4-0.9-1.5-1.6-2.5-1.5
				c-0.1,0.1-0.2,0.1-0.1,0.2c0.6,0.3,0.9,1,1.5,1.4c0.4,0.4,1,0,1.3,0.5c0.5,0.3,1.1,0.6,1.6,0.7c0.4,0.2,0.9,0.3,1.3,0.4l-0.2,0.1
				c-2.3,0.8-4.9,0.8-7.5,0.8c-0.8,0-1.5-0.3-2.2-0.3c0.2,0.2,0.4,0.3,0.6,0.4c-0.2,0.1-0.4,0.2-0.7,0.2c-0.3,0.1-0.6,0.1-0.9,0.3
				c-0.4,0-0.8,0.1-1.1,0.3c-0.4,0.4-0.8,0.9-1.4,1.1c0,0.1,0,0.3,0.1,0.3C5,47.1,5.5,47.3,6,47.1c0.8-0.1,1.3-1,2-1.4
				c0.7-0.6,1.7-0.4,2.5-0.3c0.5,0.1-0.1,0.3,0.1,0.6c0.2,0.2,0.4,0.4,0.6,0.3c0.1-0.1,0.1-0.1,0.2-0.1c0.1-0.2,0.1-0.4,0-0.6
				c0.4-0.3,0.8,0,1.2-0.1c0.9,0,1.9-0.3,2.8-0.3c0.1,0,0.3-0.2,0.5,0c-0.1,0.2-0.3,0.3-0.3,0.5c0.1,0.2,0.3,0.4,0.5,0.4
				c0.3-0.1,0.5-0.3,0.4-0.6c-0.1-0.2-0.3-0.2-0.4-0.3c0.5-0.3,1.1-0.3,1.6-0.6c0.4-0.1,0.7-0.2,1.1-0.4c0.3,0,0.6-0.3,0.9-0.2
				c-0.1,0.4-0.3,0.9-0.4,1.3c-0.4,1.3-0.7,3.1,0,4.4c0.1,0,0.1,0,0.1-0.1c-0.4-1.3-0.3-2.8,0.3-4.1c0.4-2.1,2.5-2.8,4.1-3.6
				l0.1,0.1c-0.4,1.1-1.1,2.1-0.9,3.4c0.1,0.3-0.1,0.4,0,0.6c0.4-0.3,0.8-0.7,0.9-1.1c0.2-1.1-0.5-2.5,0.7-3.3c2-0.8,4-1.9,6.4-1.9
				c0.1,0.1,0.3-0.1,0.3,0.1c-0.5,0.6-1.2,1.1-1.5,1.8c-0.8,1.1-0.8,3-0.4,4.4c0.3,0.8-0.4,1.2-0.8,1.8c-0.1,0.2-0.2,0.6-0.3,0.8
				l0.5,0.1c0.5-0.4,0.8-1,0.8-1.6c0.1,0.3,0.3,0.4,0.5,0.5c0.2-0.3-0.1-0.5-0.2-0.8c0.4-0.3,0.6,0.3,0.9,0.4c0.5,0.2,1,0.3,1.5,0.4
				l0.2-0.2c-0.6-0.9-1.6-1-2.6-1.1c-0.4-0.9-0.6-1.9-0.4-2.9c0.1-0.6,0.3-1.1,0.5-1.6c0.2-0.4,0.4-0.7,0.7-0.9
				c0.4-0.4,1-0.7,1.6-0.9h0.1v0.1c-0.7,0.5-0.8,1.3-1.1,1.9c-0.5,0.6-0.6,1.5-0.3,2.2c0.1,0.3,0.1,0.8,0.4,1.1
				c0.3-0.5,0.4-1,0.5-1.5c-0.1-0.8-0.6-1.6-0.1-2.4c0.3-0.6,0.8-0.9,1.3-1.1c1.4-0.1,2.6,0.6,3.8,1.1c0.3,0.2,0.7,0.3,0.8,0.7
				c0,1.1-0.9,2-2.1,2c-0.4,0-0.8-0.1-1.1-0.4c-0.4-0.4-0.5-1-0.4-1.5c0.3-0.4,0.7-0.5,1.1-0.4c0.3,0.1,0.5,0.4,0.8,0.3
				c0.1-0.1,0.2-0.3,0.1-0.4c-0.3-0.1-0.4-0.5-0.8-0.6c-0.5-0.1-1,0-1.4,0.3c-0.5,0.4-0.8,1.1-0.6,1.8c0.2,0.8,0.8,1.4,1.6,1.6
				c1.1,0.3,2.4-0.1,3.1-1.1c0.3-0.3,0.4-0.7,0.6-1.1c1.2,0.8,2.1,2,2.6,3.3c0.1,0.4,0.1,0.8,0,1.3l0.9,0.1c-0.1-0.2,0-0.4,0.1-0.6
				c0.4-1.6,1.3-3.1,2.6-4.2c0.4-0.3,0.3,0.3,0.4,0.5c0.4,0.9,1.2,1.6,2.1,1.9c1,0.3,2-0.1,2.7-0.9c0.3-0.6,0.8-1.5,0.2-2.1
				c-0.3-0.4-0.8-0.6-1.4-0.6c-0.6,0.1-1.1,0.4-1.4,0.9c0,0.2,0,0.4,0.1,0.5c0.1,0,0.3,0,0.4-0.1c0.1-0.4,0.4-0.6,0.7-0.8
				c0.3-0.1,0.6-0.1,0.8,0.1c0.3,0.3,0.4,0.6,0.4,1c-0.1,0.5-0.4,0.9-0.8,1.2c-0.8,0.3-1.7,0.3-2.4-0.3c-0.3-0.3-0.5-0.7-0.7-1.1
				c-0.1-0.4-0.1-0.8,0-1.1c1.1-0.7,2.3-1.1,3.6-1.3c0.5,0.1,1,0.4,1.3,0.8c1.1,1.2-0.3,2.9,0.6,4.2c0.3-0.1,0.3-0.4,0.4-0.7
				c0.4-0.9-0.1-1.9-0.3-2.8c-0.3-0.6-0.6-1.1-0.9-1.5c0.1-0.1,0.2-0.1,0.3-0.1c0.6,0.4,1.1,0.8,1.5,1.3c0.8,1.3,1.1,2.7,0.9,4.2
				c-0.2,0.8-1,1.1-1.6,1.4c-0.3,0.2-0.5,0.5-0.6,0.8c0.3,0.2,0.8,0,1-0.1c0.5-0.2,0.8-0.8,1.1-1.1c0.1,0,0,0.1,0.1,0.1
				c0,0.3-0.1,0.6,0.1,0.8c0.1-0.4,0.2-0.8,0.3-1.3c0.3,0.4,0.4,0.8,0.5,1.3c0.3,0.4,0.6,1.1,1.2,1.1c0.1-0.3,0-0.4-0.1-0.6
				c-0.1-0.6-0.6-0.9-0.9-1.4c-0.9-1.3-0.5-3.2-1.1-4.5c-0.3-0.7-0.8-1.4-1.3-1.9l0.1-0.1c1.1,0.1,2.3,0.3,3.3,0.6
				c1.4,0.7,3.3,0.5,4,2.3c0.3,1,0.8,2,1.5,2.7l0.1-0.1c0.1-0.3,0.1-0.6,0-0.9c-0.1-1.3-1.3-1.6-1.8-2.7l-0.3-0.4
				c0.6,0.2,1.3,0.4,1.8,0.6c2,0.7,3.4,2.5,3.7,4.5c0,1.5-0.3,3-0.9,4.3c-0.1,0.2-0.4,0.4-0.2,0.6c0.3-0.2,0.3-0.5,0.5-0.8
				c0.9-1.5,1.2-3.3,0.8-5.1c0-0.3-0.4-0.6-0.3-0.9c0.1,0.1,0.3,0.2,0.4,0.3c0.1-0.1,0.4-0.1,0.5-0.3c0.1-0.1,0.1-0.3,0-0.4
				c-0.2-0.2-0.4-0.3-0.8-0.2c-0.1,0.1-0.3,0.3-0.3,0.6c-0.3-0.5-0.6-0.9-0.9-1.3l0.1-0.1c1.1,0.4,2.1,0.9,3.3,1.3
				c0.3,0.2,0.6,0.3,0.9,0.3c1,0.3,2,0.6,3.1,0.8c0.8-0.1,1.4,0.3,2.1,0.1v-0.1l0,0c-0.3-0.4-0.9,0-1.2-0.3
				c-1.7-0.2-3.3-0.6-4.9-1.3c0-0.1,0.1-0.1,0.2-0.1c0.3-0.1,0.4-0.4,0.4-0.6c-0.1-0.2-0.4-0.3-0.6-0.3c-0.2,0.1-0.3,0.3-0.4,0.4
				c0.1,0.2,0.2,0.4,0.4,0.5c-0.1,0.1-0.1,0-0.3,0c-0.8-0.4-1.5-0.7-2.3-1c-0.3-0.2-0.4-0.4-0.8-0.4c-0.6-0.3-1.1-0.6-1.7-0.8
				c-1.6-0.8-3.3-1.4-5.1-1.9l-1.1-0.3c-0.6-0.2-1.3-0.3-1.9-0.5c-2.1-0.5-5-0.6-6.8,0.6c-0.3-0.1-0.5,0.4-0.6,0.1
				c0.5-1.4,2-1.8,3.4-1.9c10-0.1,19.5-0.2,29.4-0.3c1.1,0.1,2.3-0.4,2.9-1.5C82.1,35.9,82.2,35,81.9,34.3L81.9,34.3z M42,43.5
				c-0.1,0.3-0.3,0.6-0.3,0.9l-0.1,0.1c0.1-0.4-0.3-0.6-0.2-1c-0.1-0.3-0.3-0.7-0.4-1c-0.2-0.3,0.2-0.6,0.4-0.9
				c0.4,0.1,0.5,0.5,0.8,0.8C42.4,42.8,42,43.2,42,43.5L42,43.5z"/>
			<path id="Shape_00000053510179951716568480000010961707447366344072_" d="M69.2,42c0,0.1,0.1,0.1,0.1,0.3
				c-0.9,0.8-2.1,1.1-3.3,1.1c-0.1,0-0.2,0.1-0.3,0.1c-0.1-0.1-0.1-0.1-0.1-0.2C66.5,42.1,67.9,41.7,69.2,42L69.2,42z"/>
			<path id="Shape_00000090277300064157283910000003343590542530814597_" d="M65.2,42.3c0.1,0.4-0.1,0.6-0.4,0.7
				c-0.3-0.1-0.4-0.2-0.6-0.4c-0.1-0.2,0.1-0.3,0.2-0.4c0.2-0.2,0.5-0.2,0.7,0C65.1,42.3,65.2,42.3,65.2,42.3z"/>
			<path id="Shape_00000051376785231358614740000014905371783966735013_" d="M17.5,42.4c0.1,0.2,0,0.4-0.1,0.5
				c-0.1,0.1-0.3,0.2-0.4,0.2c-0.2,0-0.3-0.3-0.3-0.4c0-0.2,0.1-0.4,0.3-0.5C17.2,42.1,17.4,42.3,17.5,42.4L17.5,42.4z"/>
			<path id="Shape_00000116920891339033481220000008876094270283287707_" d="M13,44v0.2c-0.6,0.1-1.2,0-1.6-0.4
				c-0.3-0.5-0.8-0.9-1.3-1.3c0-0.1-0.1-0.2,0-0.3C11.4,42.3,12.1,43.3,13,44z"/>
			<path id="Shape_00000158717866283564721000000009769086934674896777_" d="M73,42.4c-0.6,0.9-1.1,1.9-2.1,2.3
				c-0.2,0-0.3,0.3-0.5,0.1c0.4-1.1,1.2-1.9,2.2-2.4C72.8,42.3,72.9,42.3,73,42.4L73,42.4z"/>
			<path id="Shape_00000142888676798861121780000013420634388615261599_" d="M19,42.7c0,0.3-0.2,0.3-0.4,0.5c-0.2,0-0.3-0.1-0.4-0.3
				c-0.1-0.3,0.1-0.4,0.3-0.5C18.7,42.4,18.9,42.5,19,42.7z"/>
			<path id="Shape_00000083056829189512949100000002130527380296555414_" d="M76.2,42.8c-0.3,0.3-0.1,0.8-0.4,1.1
				c-0.5,0.6-0.9,1.3-1.7,1.4c-0.1-0.3,0.2-0.5,0.3-0.8c0.3-0.8,0.9-1.5,1.6-2L76.2,42.8L76.2,42.8z"/>
			<path id="Shape_00000134950127168845330050000008559457456207596467_" d="M5.3,43.1c0.1,0.2,0.1,0.4,0,0.6
				c-0.1,0.1-0.4,0.2-0.6,0.1c-0.2-0.1-0.3-0.4-0.2-0.6l0,0l0,0l0,0C4.7,42.8,5.2,42.7,5.3,43.1L5.3,43.1z"/>
			<path id="Shape_00000085970045406632197870000007389477067421117058_" d="M3.9,43.3c0,0.1,0.1,0.3,0.1,0.4
				C3.9,43.9,3.8,44,3.6,44C3.3,44.1,3.1,44,3,43.7c-0.1-0.2,0.1-0.4,0.3-0.6C3.5,43.1,3.8,43.2,3.9,43.3z"/>
			<path id="Shape_00000151518827235407993420000008344111364464545431_" d="M6.9,43.5c0.1,0.2,0.1,0.6-0.2,0.6
				c-0.3,0.1-0.6-0.1-0.8-0.3c0-0.2,0.1-0.4,0.3-0.5C6.4,43.3,6.7,43.3,6.9,43.5L6.9,43.5z"/>
			<path id="Shape_00000177453137422397049460000002129305854038578601_" d="M11,43.9c0,0.2,0,0.4-0.2,0.5c-0.1,0.1-0.3,0.1-0.5,0.1
				c-0.1-0.1-0.3-0.3-0.2-0.4c0.1-0.1,0.2-0.2,0.4-0.3C10.6,43.7,10.8,43.7,11,43.9L11,43.9z"/>
			<path id="Shape_00000122704432394503893730000016292303351835381430_" d="M78.6,44c-0.1,0.2-0.2,0.4-0.4,0.4
				c-0.3,0-0.4-0.1-0.6-0.3c-0.1-0.3,0.1-0.4,0.3-0.5C78.2,43.6,78.5,43.8,78.6,44L78.6,44z"/>
			<path id="Shape_00000108987437807472788380000018424243373683890069_" d="M74,44.2c0,0.2-0.2,0.4-0.3,0.4c-0.3,0.1-0.5,0-0.6-0.3
				c-0.1-0.3,0-0.5,0.3-0.6c0.3-0.1,0.5,0,0.6,0.3C74,44,74,44.1,74,44.2L74,44.2z"/>
			<path id="Shape_00000160889571931921441680000002517027090562168508_" d="M77.1,44.1c0,0.2-0.1,0.3-0.3,0.4
				c-0.2,0.1-0.4,0.1-0.6-0.1c-0.3-0.2-0.1-0.4,0.1-0.5C76.6,43.8,76.8,43.9,77.1,44.1L77.1,44.1L77.1,44.1z"/>
			<path id="Shape_00000057125465293274991030000002571115859220389810_" d="M4.6,44.5c0.1,0.3-0.1,0.5-0.3,0.6
				c-0.3,0-0.4-0.1-0.6-0.4c0-0.2,0.1-0.4,0.3-0.5C4.3,44.2,4.6,44.3,4.6,44.5L4.6,44.5z"/>
			<path id="Shape_00000003103250925288378650000000830918721387355008_" d="M72.7,44.8c0.1,0.3-0.1,0.6-0.4,0.6
				c-0.2,0.1-0.4-0.1-0.5-0.2c-0.1-0.1-0.2-0.3-0.1-0.4c0-0.1,0.1-0.1,0.1-0.1c0.1-0.3,0.4-0.3,0.7-0.1
				C72.7,44.6,72.7,44.7,72.7,44.8L72.7,44.8z"/>
			<path id="Shape_00000070836522927406919580000001936822309342749863_" d="M18.2,45.1c0.1,0.3-0.2,0.3-0.3,0.5
				c-0.1,0.1-0.3,0.1-0.4,0c-0.1-0.1-0.3-0.3-0.2-0.5c0.1-0.1,0.2-0.2,0.3-0.3C17.9,44.7,18,45,18.2,45.1L18.2,45.1z"/>
			<path id="Shape_00000043424197441124077120000000380339429114133170_" d="M78.2,45.2c0.1,0.2-0.1,0.3-0.1,0.4
				c-0.2,0.1-0.4,0.1-0.6,0.1c-0.3-0.1-0.3-0.3-0.3-0.6c0.1-0.1,0.2-0.3,0.4-0.3C77.8,44.9,78,45.1,78.2,45.2z"/>
			<path id="Shape_00000023262004784107951450000016287386898653105282_" d="M76.5,45.4c0.1,0.3-0.2,0.4-0.4,0.5
				c-0.1,0-0.3-0.1-0.3,0.1c0.6,0.4,1.1,0.8,1.6,1.3v0.2c-0.9,0.1-1.8-0.3-2.5-0.9c-0.2-0.1-0.5-0.1-0.7-0.3
				c0.3-0.3,0.9-0.2,1.4-0.3c0.3-0.4-0.4-0.6,0.1-0.9c0.1,0,0.3-0.2,0.4-0.1C76.3,45.1,76.5,45.2,76.5,45.4L76.5,45.4z"/>
			<path id="Shape_00000090291846301246207050000007463004669708481169_" d="M66.4,45.4c0.1,0.1-0.1,0.3-0.1,0.4
				c-0.1,0.1-0.4,0.2-0.6,0.1c-0.1-0.2-0.3-0.3-0.3-0.6c0.1-0.3,0.4-0.3,0.7-0.2C66.2,45.2,66.3,45.2,66.4,45.4z"/>
			<path id="Shape_00000016786532103467691020000003576568161013783213_" d="M10.3,46.3c-0.1,0.3-0.2,0.4-0.4,0.4
				c-0.2,0-0.4-0.1-0.4-0.3c0-0.2,0.1-0.3,0.1-0.4C9.8,45.7,10.3,45.9,10.3,46.3L10.3,46.3z"/>
			<path id="Shape_00000111170153603098106700000003675432187964852360_" d="M12.4,45.9c0,0.4-0.4,0.6-0.5,0.9
				c-0.3,0.9-1.1,1.5-2,1.6c-0.1-0.3,0.3-0.5,0.4-0.8c0.4-0.9,1.2-1.3,1.9-1.8L12.4,45.9L12.4,45.9z"/>
			<path id="Shape_00000160178195562964803670000007678953134973401482_" d="M65.7,46.3c0,0.3-0.2,0.5-0.4,0.6
				c-0.2,0.1-0.4-0.1-0.5-0.2c-0.2-0.2-0.1-0.4,0-0.6C65.1,45.7,65.5,45.9,65.7,46.3L65.7,46.3z"/>
			<path id="Shape_00000133496891501252948070000014502485396276894129_" d="M67.3,46.4c0,0.3-0.2,0.5-0.4,0.6
				c-0.1-0.1-0.2,0-0.3-0.1c-0.2-0.1-0.3-0.3-0.3-0.4c0.1-0.1,0.2-0.3,0.4-0.4C66.9,46.1,67.2,46.1,67.3,46.4z"/>
			<path id="Shape_00000169522711063997693650000007028307286071644332_" d="M16.2,46.4c0,0.3-0.1,0.4-0.4,0.5
				c-0.2,0-0.4-0.1-0.5-0.3c-0.1-0.3,0.2-0.4,0.3-0.5C16,46.1,16.1,46.3,16.2,46.4L16.2,46.4z"/>
			<path id="Shape_00000134930905407330213000000012544399345589015208_" d="M18,46.5c-0.1,0.2-0.3,0.4-0.5,0.4
				c-0.2-0.1-0.4-0.1-0.4-0.3c-0.1-0.2,0.2-0.4,0.3-0.5C17.7,46.1,17.9,46.3,18,46.5z"/>
			<path id="Shape_00000088844932336917892150000011529834067322787496_" d="M72.7,48.3c0.1,0.1,0.4,0.3,0.3,0.4
				c-0.4,0.2-0.8-0.3-1.1-0.4c-0.6-0.6-1-1.3-1.3-2c0.3-0.3,0.5,0.1,0.7,0.1C71.8,46.9,72.4,47.6,72.7,48.3z"/>
			<path id="Shape_00000067232752333256172820000011257621640494528184_" d="M73.6,46.5c0.1,0.2,0.1,0.4-0.1,0.6
				c-0.1,0.3-0.5,0.2-0.7,0.1c-0.1-0.1-0.4-0.4-0.2-0.6c0.1-0.2,0.3-0.3,0.5-0.3C73.3,46.3,73.4,46.4,73.6,46.5L73.6,46.5z"/>
			<path id="Shape_00000169544109480619975640000003949735220245287359_" d="M20.2,47.2c0,0.2,0.1,0.5-0.2,0.6
				c-0.3,0.1-0.5,0-0.6-0.3l0,0l0,0c-0.1-0.3,0.1-0.4,0.3-0.5S20.1,47.1,20.2,47.2L20.2,47.2z"/>
			<path id="Shape_00000108296242519649192230000000176065294891860385_" d="M67.2,48.8c0.4,0.5,0.6,1.1,0.6,1.8
				c-0.1,0.2,0.1,0.4,0,0.5h-0.2c-1.1-0.8-1.4-2-1.8-3.1c-0.1-0.1-0.1-0.1-0.1-0.3c0.3-0.3,0.4,0.3,0.7,0.3L67.2,48.8L67.2,48.8z"/>
			<path id="Shape_00000109744712590254513510000014300269091914934200_" d="M23.5,48L23.5,48c-1,0.8-2.4,1.2-3.5,0.5
				c0-0.1,0-0.2,0.1-0.3c0.7-0.3,1.5-0.5,2.2-0.5L23.5,48L23.5,48z"/>
			<path id="Shape_00000139982813143401575190000008280343440880122515_" d="M17.8,48.1c-0.9,0.5-1.6,1.6-2.7,1.8
				c-0.2,0.1-0.3,0.4-0.6,0.2c0.4-1.4,1.9-2.1,3.3-2.2L17.8,48.1L17.8,48.1z"/>
			<path id="Shape_00000018954451784697184130000016782310688127448968_" d="M65.7,49.2c0.1,0.2,0,0.4-0.2,0.5l0,0l0,0
				c-0.1,0.1-0.3,0.1-0.5,0c-0.3-0.1-0.3-0.3-0.3-0.5c0-0.2,0.3-0.2,0.4-0.3C65.5,49,65.6,49,65.7,49.2z"/>
			<path id="Shape_00000101796415053344638860000009041646014992835745_" d="M63.6,49.3c-0.2,0.3-0.5,0.6-0.9,0.6
				c-0.8,0.3-1.6-0.1-2.4-0.3c0-0.2,0.3-0.1,0.4-0.3c0.8-0.3,1.7-0.3,2.5-0.1C63.4,49.2,63.5,49.2,63.6,49.3L63.6,49.3z"/>
			<path id="Shape_00000045581056181445507800000002917990448638759306_" d="M17.8,50.1c-0.1,0.1-0.1,0.3-0.3,0.4
				c-0.2,0.1-0.4,0-0.5-0.1c-0.1-0.1-0.3-0.3-0.1-0.4c0.1-0.1,0.3-0.3,0.4-0.3C17.5,49.7,17.7,49.9,17.8,50.1L17.8,50.1z"/>
			<path id="Shape_00000152943313173329038630000017683880408303644582_" d="M19.3,50.3c-0.1,0.2-0.2,0.4-0.3,0.5
				c-0.2,0.1-0.4-0.1-0.5-0.2c-0.1-0.1-0.1-0.3-0.1-0.5c0.1-0.1,0.3-0.1,0.3-0.3C19,49.9,19.2,50,19.3,50.3L19.3,50.3z"/>
			<path id="Shape_00000104702956928619899700000006948598726823579539_" d="M65.3,50.5c0,0.2-0.1,0.4-0.2,0.5
				c-0.1,0.2-0.4,0.2-0.6,0.1c-0.2,0-0.3-0.3-0.3-0.4c-0.1-0.1,0.1-0.3,0.2-0.5c0.3-0.2,0.6-0.1,0.8,0.1
				C65.2,50.4,65.2,50.5,65.3,50.5z"/>
			<path id="Shape_00000040564353056494249100000016151777809948995470_" d="M66.4,50.5c0,0.1,0.1,0.3,0.1,0.4
				c-0.1,0.1-0.3,0.4-0.6,0.3c-0.1,0.1-0.3-0.1-0.3-0.2c-0.1-0.3,0-0.5,0.2-0.6l0.1-0.1C66.1,50.2,66.2,50.4,66.4,50.5z"/>
			<path id="Shape_00000105392367535087677690000011290185976245919380_" d="M18.4,51.2c0.1,0.3-0.1,0.5-0.3,0.7
				c-0.3,0.1-0.6,0.1-0.7-0.3c-0.1-0.3,0.1-0.6,0.3-0.8C18,50.9,18.3,51,18.4,51.2L18.4,51.2z"/>
			<path id="Shape_00000102531944304530444130000018359797175458062262_" d="M19.8,51.1c-0.1,0.7-0.2,1.6-0.9,2
				c-0.4,0.1-0.8,0.4-1.2,0.2v-0.1C18.2,52.4,19.2,51.9,19.8,51.1L19.8,51.1z"/>
			<path id="Shape_00000178922090611763804050000014009834126638340536_" d="M61.3,51.7c0.1,0.1-0.1,0.3-0.1,0.4
				c-0.1,0.1-0.4,0.1-0.6,0c-0.2-0.1-0.3-0.3-0.1-0.5l0,0c0.1-0.1,0.2-0.3,0.3-0.3C61,51.4,61.2,51.5,61.3,51.7L61.3,51.7z"/>
			<path id="Shape_00000055703142637223525700000009537745322073967035_" d="M22.3,52.9c0.3,0.6,0.1,1.4,0.3,2
				c-0.4,0.1-0.6-0.4-0.9-0.7c-0.6-0.8-0.5-1.8-0.8-2.7c0.1-0.1,0.1-0.1,0.2-0.1c0.4,0.3,0.7,0.7,1,1.1
				C22.1,52.8,22.4,52.8,22.3,52.9L22.3,52.9z"/>
			<path id="Shape_00000083055920720872433850000006363893852674407066_" d="M62.6,51.9c0,0.2-0.3,0.3-0.4,0.4
				c-0.2,0-0.3-0.1-0.5-0.3c-0.1-0.3,0.1-0.3,0.3-0.4c0.2-0.1,0.4,0,0.6,0.2C62.6,51.9,62.6,51.9,62.6,51.9L62.6,51.9z"/>
			<path id="Shape_00000090280521788297043130000010350712714734818202_" d="M65.5,54.1c0,0.1,0,0.3-0.1,0.2h-0.1
				c-0.8-0.6-1.5-1.4-1.3-2.4h0.1C64.8,52.5,65.5,53.1,65.5,54.1L65.5,54.1z"/>
			<path id="Shape_00000173881506635628917840000005303206244854352814_" d="M63.7,53.4c0,0.2-0.1,0.4-0.3,0.5
				c-0.3,0.1-0.7,0.1-0.8-0.3c0-0.3,0.3-0.4,0.4-0.5C63.3,52.9,63.6,53.1,63.7,53.4L63.7,53.4L63.7,53.4L63.7,53.4z"/>
			<path id="Shape_00000122697016248047825790000011902573410223372430_" d="M62,53.9c-0.4,0.9-1.3,1.4-2,2.1
				C59.9,56,60,55.8,60,55.7c0.3-1,0.9-1.8,2-2.3C62.4,53.4,61.9,53.7,62,53.9z"/>
			<path id="Shape_00000147908761130748237440000013372498450682174340_" d="M63.9,54.7c0,0.3-0.3,0.3-0.4,0.4
				c-0.2,0-0.4-0.1-0.6-0.3c0-0.3,0.2-0.3,0.3-0.4C63.6,54.3,63.8,54.5,63.9,54.7z"/>
			<path id="Shape_00000054231254319581388750000010326499813645775784_" d="M45.3,8.9c0.4,0,0.6,0.3,0.6,0.6s-0.3,0.6-0.6,0.6h-7.5
				c-0.4,0-0.6-0.3-0.6-0.6s0.3-0.6,0.6-0.6H45.3z M40,9.9c0.8,0,0.1-0.9-0.4-0.9h-0.7c-0.8,0-0.1,0.9,0.3,0.9H40z M43,9.9
				c0.8,0,0.1-0.9-0.4-0.9h-0.8c-0.8,0-0.1,0.9,0.4,0.9H43z M45.3,9.1h-0.3c-0.8,0-0.1,0.9,0.3,0.9C45.7,9.9,45.8,9.1,45.3,9.1z"/>
			<path id="Shape_00000038389567772957718060000015525151582292310442_" d="M44.6,17.4L46,18l1.4-0.6l-0.6,2.1l1.1-0.3l-0.4,1.3
				l0.4,1.2l-1-0.3l0.4,2.3L46,23.1l-1.4,0.6l0.6-2.3l-1.1,0.3l0.3-1.3l-0.3-1.2l1.1,0.2L44.6,17.4L44.6,17.4z M46.7,21.2
				c0.3,0,0.4-0.4,0.4-0.8c0-0.9-0.7,0-1-0.8c-0.3,0.7-0.9,0.1-0.9,0.8c0,0.5,0,0.8,0.5,0.8L46.7,21.2L46.7,21.2z M45.3,20.4
				c0,0.3,0.4,0.1,0.8,0.1s0.8,0.2,0.8-0.1c0-0.4-0.4-0.3-0.8-0.3S45.3,19.9,45.3,20.4L45.3,20.4z"/>
			<polygon id="Shape_00000146457260370813350590000004815845603841123765_" points="41.3,20.4 41.3,20.2 41,20.1 41.2,19.9 
				41.2,19.7 41.3,19.7 41.5,19.5 41.7,19.7 41.9,19.7 41.8,19.9 42,20.1 41.7,20.2 41.7,20.4 41.5,20.3 			"/>
			<polygon id="Shape_00000003784928730257554550000000644370120746987197_" points="40.2,21.9 40.2,21.6 40,21.6 40.1,21.4 
				40,21.1 40.3,21.2 40.4,20.9 40.6,21.2 40.8,21.1 40.7,21.4 40.9,21.6 40.6,21.6 40.6,21.9 40.4,21.7 			"/>
			<polygon id="Shape_00000002357436876798466280000015710670941437611420_" points="42,21.7 42,21.4 41.8,21.4 42,21.2 41.9,21 
				42.2,21 42.3,20.7 42.4,21 42.7,21 42.5,21.2 42.7,21.4 42.5,21.4 42.5,21.7 42.3,21.5 			"/>
			<polygon id="Shape_00000138572766060437282010000014701332369789697683_" points="42.3,22.8 42.3,22.6 42.2,22.6 42.2,22.4 
				42.2,22.3 42.4,22.4 42.4,22.2 42.5,22.3 42.6,22.3 42.5,22.4 42.7,22.6 42.5,22.6 42.5,22.8 42.4,22.6 			"/>
			<polygon id="Shape_00000029013507303121782800000000646024036996896696_" points="40.5,24 40.5,23.5 40.1,23.4 40.5,23.1 
				40.3,22.7 40.6,22.8 40.9,22.3 41.2,22.8 41.6,22.7 41.4,23.1 41.7,23.4 41.3,23.5 41.3,24 40.9,23.6 			"/>
			<polygon id="Shape_00000125577416656091178970000005363999219390285972_" points="41.4,0.1 42.3,2.3 44.6,1.7 43.4,3.7 45.3,5.1 
				43,5.5 43.2,7.8 41.4,6.2 39.7,7.8 39.8,5.5 37.6,5.1 39.4,3.7 38.3,1.7 40.5,2.3 			"/>
			<path id="Shape_00000068650906964342703030000013168127069357814162_" d="M33.3,48.8c-0.3,0.1-0.4,0.2-0.3,0.4l0.3,1.3
				c0.1,0.3,0.1,0.6-0.1,0.9c-0.3,0.3-0.6,0.4-0.9,0.5c-0.4,0.1-0.7,0.1-1.1,0c-0.3-0.1-0.5-0.3-0.5-0.6l-0.3-1.4
				c-0.1-0.4-0.2-0.3-0.5-0.3v-0.1l1.7-0.4v0.1c-0.3,0.1-0.5,0.1-0.4,0.5l0.3,1.4c0.1,0.3,0.2,0.8,0.9,0.6c0.4-0.1,0.8-0.4,0.8-0.9
				c0-0.1,0-0.2-0.1-0.3l-0.3-1.3c-0.1-0.3-0.1-0.4-0.6-0.3V49L33.3,48.8L33.3,48.8L33.3,48.8z"/>
			<path id="Shape_00000074404971085860112290000008423625427560573879_" d="M35.8,49.1c-0.2-0.4-0.7-0.6-1.1-0.6
				c-0.3,0.1-0.5,0.3-0.5,0.5c0,0.3,0.2,0.3,0.6,0.4l0.8,0.1c0.3,0.1,0.6,0.3,0.7,0.6c0.1,0.4-0.1,0.9-1.1,1.1
				c-0.3,0.1-0.6,0.1-0.9,0.1c-0.1,0-0.1,0.1-0.1,0.2l-0.1,0.1l-0.3-1l0.1-0.1c0.2,0.5,0.7,0.8,1.2,0.7c0.6-0.1,0.5-0.6,0.5-0.6
				c-0.1-0.3-0.3-0.3-0.7-0.4l-0.3-0.1c-0.9-0.1-1-0.5-1.1-0.7c-0.1-0.2,0-0.9,0.9-1.1c0.3,0,0.6,0,0.8,0c0.1,0,0.1-0.1,0.1-0.2
				l0.1-0.1L36,49L35.8,49.1L35.8,49.1z"/>
			<path id="Shape_00000075858840258495809260000015017073307864846985_" d="M39.1,50.7l-1.8,0.2v-0.1c0.4-0.1,0.5-0.1,0.4-0.4
				l-0.2-2.2c-0.4,0.1-0.9,0.1-0.9,0.8h-0.1l-0.1-0.9l3-0.3l0.1,0.9h-0.1C39.2,48,38.7,48,38.3,48l0.2,2.3c0.1,0.4,0.1,0.4,0.5,0.4
				L39.1,50.7L39.1,50.7z"/>
			<path id="Shape_00000011730000625297371040000013187852921484022195_" d="M43.4,50.7h-1.1l-1-1.4h-0.1v0.8c0,0.3,0.1,0.4,0.4,0.4
				v0.1h-1.7v-0.1c0.3,0,0.4-0.1,0.4-0.4l0.1-1.9c0-0.4-0.1-0.4-0.4-0.4v-0.1l1.6,0.1c0.4,0,1.5,0.1,1.5,0.8c0,0.5-0.5,0.6-0.8,0.7
				l1,1.3c0.1,0.1,0.1,0.1,0.2,0.1L43.4,50.7L43.4,50.7z M41.2,49.2c0.7,0,0.9-0.1,0.9-0.6c0.1-0.3-0.1-0.6-0.4-0.6
				c-0.1,0-0.1,0-0.2,0c-0.3,0-0.3,0.1-0.3,0.2V49.2L41.2,49.2z"/>
			<path id="Shape_00000044160319091364462290000017366173435707082401_" d="M46.7,51.2L45.1,51v-0.1c0.3,0,0.4,0,0.4-0.1
				c0-0.2-0.1-0.4-0.2-0.6L44.2,50c-0.1,0.2-0.2,0.3-0.3,0.5c0,0.2,0.2,0.2,0.4,0.3v0.1l-1-0.1v-0.1c0.3,0,0.4-0.1,0.6-0.4l1.4-2.2
				h0.1l0.8,2.4c0.2,0.5,0.3,0.6,0.5,0.6L46.7,51.2L46.7,51.2z M45.3,50l-0.4-1.1l-0.6,0.9L45.3,50z"/>
			<path id="Shape_00000128459909606927745400000010327838957386165668_" d="M49.7,51.7l-2.9-0.5v-0.1c0.3,0,0.4,0.1,0.5-0.2l0.4-2
				c0.1-0.3-0.1-0.3-0.4-0.4v-0.1l1.8,0.3v0.1c-0.4-0.1-0.5-0.1-0.6,0.3l-0.4,2c-0.1,0.2,0.1,0.3,0.4,0.3c0.6,0.1,1.1-0.1,1.4-0.6
				H50L49.7,51.7L49.7,51.7z"/>
			<path id="Shape_00000137128848270412817690000003843592069712201620_" d="M51.6,52.2l-1.8-0.4v-0.1c0.3,0.1,0.5,0.1,0.5-0.2
				l0.4-2c0.1-0.3-0.2-0.3-0.4-0.4V49l1.8,0.4v0.1c-0.3-0.1-0.5-0.1-0.5,0.2l-0.4,2c-0.1,0.3,0.1,0.3,0.4,0.4L51.6,52.2L51.6,52.2z"
				/>
			<path id="Shape_00000160882562780593626880000002515514957797694635_" d="M55.2,52.7l-1.6-0.2v-0.1c0.3,0,0.4,0,0.4-0.1
				c0-0.2-0.1-0.4-0.2-0.6l-1.1-0.1c-0.1,0.2-0.2,0.3-0.3,0.5c0,0.2,0.3,0.2,0.4,0.3v0.1l-1-0.1v-0.1c0.3,0,0.4-0.1,0.6-0.4l1.4-2.2
				h0.1l0.9,2.3c0.2,0.5,0.3,0.6,0.5,0.6V52.7z M53.7,51.5l-0.4-1.1l-0.6,1L53.7,51.5L53.7,51.5z"/>
			<path id="Shape_00000167357349964708533360000007828585834382751642_" d="M42.2,18.1c0-1-0.6-0.1-0.9-0.9
				c-0.3,0.8-0.9,0.1-0.9,0.9c0,0.2,0.1,0.4,0.3,0.6V19c0,0.1,0.1,0.1,0.1,0.1h1.1c0.1,0,0.1-0.1,0.1-0.1l0,0l0,0v-0.3
				C42.1,18.5,42.2,18.3,42.2,18.1z M41.2,18.3c-0.3,0-0.7,0.2-0.7-0.1c0-0.5,0.3-0.4,0.6-0.4s0.8-0.1,0.8,0.4
				C41.9,18.5,41.5,18.3,41.2,18.3L41.2,18.3z"/>
			<path id="Shape_00000179644002505813072030000017452173443635699585_" d="M51.1,30.7c0.3,0,0.4-0.3,0.4-0.4
				c0-0.3-0.3-0.4-0.4-0.4c-0.2,0-0.4,0.2-0.4,0.4C50.6,30.5,50.9,30.7,51.1,30.7z"/>
			<path id="Shape_00000012447767993710763200000011925402870768073877_" d="M48.9,15.4c-0.1,0.1-0.2,0.3-0.2,0.4
				c0,0.1,0.1,0.3,0.2,0.3c0.1,0,0.3-0.1,0.3-0.2v-0.1L48.9,15.4z"/>
			<path id="Shape_00000126281145862934542630000015334596874777552060_" d="M33.8,15.4c-0.1,0.1-0.2,0.3-0.2,0.4
				c0,0.1,0.1,0.3,0.2,0.3s0.3-0.1,0.3-0.2v-0.1L33.8,15.4z"/>
			<path id="Shape_00000059990323667093473790000005617396852734499988_" d="M37.6,15.4c-0.1,0.1-0.2,0.3-0.2,0.4
				c0,0.1,0.1,0.3,0.2,0.3s0.3-0.1,0.3-0.2v-0.1L37.6,15.4z"/>
			<path id="Shape_00000171709248764107628770000005645133444406846378_" d="M41.3,15.4c-0.1,0.1-0.2,0.3-0.2,0.4
				c0,0.1,0.1,0.3,0.2,0.3s0.3-0.1,0.3-0.2v-0.1L41.3,15.4z"/>
			<path id="Shape_00000091008315874747465500000006729035463828327838_" d="M45.1,15.4c-0.1,0.1-0.2,0.3-0.2,0.4
				c0,0.1,0.1,0.3,0.2,0.3s0.3-0.1,0.3-0.2v-0.1L45.1,15.4z"/>
			<path id="Shape_00000176044848806512210750000007800073198228022922_" d="M33.8,20.6c0.1,0.1,0.2,0.3,0.2,0.4
				c0,0.1-0.1,0.3-0.2,0.3s-0.3-0.1-0.3-0.2v-0.1L33.8,20.6z"/>
			<path id="Shape_00000110462188813567342920000003018121127943139206_" d="M33.8,25.7c0.1,0.1,0.2,0.3,0.2,0.4s-0.1,0.3-0.2,0.3
				s-0.3-0.1-0.3-0.2v-0.1L33.8,25.7z"/>
			<path id="Shape_00000182512003965666876030000001525817175556538249_" d="M34.3,29.7c0.1,0.1,0.2,0.3,0.2,0.4s-0.1,0.3-0.2,0.3
				s-0.3-0.1-0.3-0.2v-0.1L34.3,29.7z"/>
			<path id="Shape_00000060013376542593558610000004453286203614385845_" d="M37.6,31.8c0.1,0.1,0.2,0.3,0.2,0.4s-0.1,0.3-0.2,0.3
				s-0.3-0.1-0.3-0.2v-0.1L37.6,31.8z"/>
			<path id="Shape_00000035493959385351184050000016701903464122666171_" d="M49,20.6c-0.1,0.1-0.2,0.3-0.2,0.4
				c0,0.1,0.1,0.3,0.2,0.3s0.3-0.1,0.3-0.2v-0.1L49,20.6z"/>
			<path id="Shape_00000062873738124802746710000018096500528052591780_" d="M49,25.7c-0.1,0.1-0.2,0.3-0.2,0.4s0.1,0.3,0.2,0.3
				s0.3-0.1,0.3-0.2v-0.1L49,25.7z"/>
			<path id="Shape_00000015326502753450201350000003931899313058971013_" d="M48.5,29.7c-0.1,0.1-0.2,0.3-0.2,0.4s0.1,0.3,0.2,0.3
				s0.3-0.1,0.3-0.2v-0.1L48.5,29.7z"/>
			<path id="Shape_00000110433569632715066770000015665576255291483543_" d="M45.3,31.8c-0.1,0.1-0.2,0.3-0.2,0.4s0.1,0.3,0.2,0.3
				s0.3-0.1,0.3-0.2v-0.1L45.3,31.8z"/>
			<path id="Shape_00000012447945844228900940000006306994439168783502_" d="M41.4,34.1c-0.1,0.1-0.2,0.3-0.2,0.4s0.1,0.3,0.2,0.3
				s0.3-0.1,0.3-0.2v-0.1L41.4,34.1z"/>
			<path id="Shape_00000023279993686628331280000000654073767422189227_" d="M47.6,26.5c0.1,0.1,0.2,0.1,0.3,0.1l0.1-0.4
				c0,0-0.2-0.2-0.3-0.2c-0.4,0.1-0.8,0.1-1.1,0.5c0,0.3,0.1,0.5,0.4,0.6c0.1-0.1,0.2,0.1,0.3,0.2c0,0.1,0,0.2-0.1,0.2h-0.1
				c-0.3-0.3-0.8,0.1-1-0.3c0.1-0.4,0.3-0.8,0-1.1c0-0.1,0.1-0.1,0.1-0.2c-0.1-0.3-0.5-0.1-0.7-0.1c-0.3-0.1-0.7,0.1-0.9,0.4
				c0,0.1,0.1,0.3,0.2,0.4c0.1,0,0.1,0,0.2,0.1L44.8,27c0.1,0.1,0.1,0.2,0.1,0.3c-0.2,0.1-0.3-0.2-0.4-0.3c-0.1-0.1,0-0.5-0.3-0.6
				c-0.1,0-0.1,0.1-0.2,0.1c-0.1,0.1-0.1,0.3-0.1,0.4s0.1,0.3,0.1,0.4c0.3,0.3,0.6,0.6,0.9,0.9c-0.2,0.4-0.2,1-0.7,1.3
				c-0.1,0.1-0.2,0.3-0.1,0.4l0.1,0.1c0.3-0.2,0.9-0.2,0.9-0.8c0.1-0.3,0.3-0.4,0.4-0.6c0.3-0.1,0.4,0.1,0.6,0.3
				c-0.1,0.3-0.3,0.6-0.6,0.7c-0.1,0.1,0,0.1,0,0.2c0.1,0.2,0.4,0.1,0.5,0.1c0.4-0.3,0.6-0.8,0.9-0.9c0.1,0.3-0.5,0.3-0.1,0.6
				c0.2-0.1,0.5,0,0.6-0.3c-0.2-0.4,0.6-0.6,0.1-0.9c0-0.4,0.4-0.5,0.4-0.9c-0.1-0.4-0.6-0.4-0.7-0.8C47.3,26.4,47.5,26.4,47.6,26.5
				L47.6,26.5z"/>
			<path id="Shape_00000046322287386311034690000004911302094741316522_" d="M30.2,30.9c0.3,0,0.4-0.3,0.4-0.4
				c0-0.3-0.3-0.4-0.4-0.4s-0.4,0.2-0.4,0.4C29.7,30.7,30,30.9,30.2,30.9z"/>
			<path id="Shape_00000143580492209493463880000015534077423971426480_" d="M5.7,45.2c0.3,0,0.4-0.3,0.4-0.5
				c-0.1-0.3-0.3-0.4-0.5-0.4c-0.2,0-0.4,0.2-0.4,0.4C5.2,45,5.4,45.2,5.7,45.2L5.7,45.2L5.7,45.2L5.7,45.2z"/>
			<polygon id="Shape_00000090262647077749364270000013327963159817289616_" points="21.3,48.7 21.3,48.7 21.3,48.7 21.3,48.7 
				21.3,48.7 21.3,48.7 			"/>
			<path id="Shape_00000090269969351141395080000014350952256900132242_" d="M21.5,48.7C21.5,48.7,21.5,48.7,21.5,48.7L21.5,48.7
				C21.6,48.7,21.6,48.7,21.5,48.7L21.5,48.7z"/>
			<path id="Shape_00000029025519326543493170000009630992813164683151_" d="M50.1,14.9H32.7v13.3c0,1.4,0.6,2.5,1.4,2.9l6.7,4.3
				c0.3,0.3,0.8,0.4,1.1,0.1l0,0l6.8-4.4c0.8-0.4,1.4-1.6,1.4-2.9V14.9L50.1,14.9z M49.6,28.4c0,0.9-0.4,1.8-1.1,2.3l-6.6,4.2h-0.1
				c-0.3,0.3-0.7,0.3-1,0l-6.6-4.2c-0.7-0.6-1.1-1.4-1.1-2.3V15.3h16.5V28.4L49.6,28.4z"/>
			<path id="Shape_00000044165226583209022870000012227537754220671417_" d="M43.7,34.3l0.2-0.1C43.9,34.2,43.8,34.3,43.7,34.3z"/>
			<path id="Shape_00000098915620310913872240000001343925455609667994_" d="M30.6,52.5L29,52.7v-0.1c0.3-0.1,0.4-0.1,0.4-0.2
				c-0.1-0.2-0.2-0.4-0.3-0.5L27.9,52c-0.1,0.2-0.1,0.4-0.1,0.6c0,0.2,0.3,0.1,0.4,0.1v0.1l-1,0.1v-0.1c0.3-0.1,0.3-0.2,0.4-0.6
				l0.9-2.5l0,0l1.5,2.1C30.2,52.4,30.4,52.5,30.6,52.5L30.6,52.5L30.6,52.5z M28.9,51.7l-0.6-0.9l-0.4,1.1L28.9,51.7L28.9,51.7z"/>
			<path id="Shape_00000145771192920814269480000015611896911934174123_" d="M59.5,46.3c-0.3-0.8-0.9-1.3-1.7-1.6
				c-0.8-0.3-1.6,0-2.1,0.6c-0.9,0.8-0.3,2-0.3,2.9c0,0.2,0,0.4-0.2,0.4c-3.7-0.3-7-1.3-10.6-1.6c-0.9-0.1-1.6-0.1-2.5-0.2l-1-0.1
				c-3.1,0-6.2,0.4-9.2,1c-0.6,0.2-1.3,0.3-2,0.5c-0.4-0.1-0.8,0.3-1.3,0.1l-0.8,0.2c-0.1,0-0.2,0-0.3,0c-0.4-1,0.8-1.6,0.4-2.7
				c-0.3-0.6-1-1.1-1.7-1c-0.8-0.1-1.6,0.3-2,1c-0.6,1.3,0.1,2.6,0.4,3.8c-0.1,0.4,0.4,0.9,0,1.2c-0.8-0.6-1.8-0.8-2.8-0.6
				c-0.3,0.1-0.8-0.1-1,0.3c1.1,0.6,2.5,0.5,3.7,0.4c0.1-0.1,0.3-0.1,0.4,0c0.1,0.6-0.1,1.5,0.3,2.1c0.5,0.5,1.2,0.8,1.9,0.8
				c2.3-0.1,4.4-0.8,6.4-1.3c0.3,0,0.6-0.2,0.9-0.2c1.2-0.3,2.4-0.4,3.6-0.4c-0.5,0.7-0.9,1.5-1.1,2.3c-0.3,0.7,0.5,0.8,0.8,1.1
				c-0.8,0.3-1.3,0.8-2,1.1c-1.6-0.1-3,0.6-4.5,0.8c0,0.3,0.5,0.3,0.6,0.6c-0.1,0.3-0.3,0.3-0.5,0.4c0,0.1,0,0.2,0.1,0.2
				c0.1-0.2,0.5-0.1,0.6-0.3c0.5,0,0.9-0.1,1.4-0.2c0.4-0.1,0.9-0.3,1.3-0.5c0.5-0.1,0.8-0.5,1.4-0.6c0.8,0,1.5-0.3,2.1-0.3v0.1
				c-0.6,0.9-1.2,1.9-1.8,2.8c-0.1,0.1,0,0.3,0.1,0.4l0,0h0.1c0.3,0.1,0.7,0,0.9-0.1c0.5-0.9,1-1.8,1.5-2.7c0.2-0.8,0.8-1.3,1.5-1.8
				c0.1-0.1,0.3-0.2,0.4-0.1c-0.4,0.6-0.9,1.1-1.2,1.8c-0.3,0.8-0.1,1.6,0.4,2.2c0.3,0.3,0.8,0.2,1.1,0.2c1-0.5,2.2,0.3,3-0.6
				c0.4-0.1,0.5,0.4,0.8,0.7c0.4,0.1,0.9,0.6,1.3,0.3c0-0.3-0.3-0.5-0.5-0.8c-0.3-0.5-0.7-0.9-0.9-1.5c-0.2-0.3-0.3-0.6-0.4-0.9
				c0.4,0.2,0.9,0.4,1.3,0.5c0.4,0.1,0.9,0.3,1.3,0.4c0.4,0.4,0.8,0.7,1.3,0.9c0.6,0.3,1.3,0.4,2,0.6c0.3,0,0.6,0.3,0.8,0
				c-0.1-0.1-0.3-0.2-0.4-0.3c-0.1-0.3,0.4-0.1,0.6-0.4c-0.1-0.1-0.2-0.2-0.3-0.2c-0.4-0.2-1.3-0.3-1.5-0.4
				c-0.3-0.1-0.6-0.2-0.9-0.3c-1.5,0-2.3-1.4-3.5-1.9c0.3-0.3,0.7-0.4,0.9-0.8c0.3-0.4,0.3-0.9,0.1-1.3c-0.2-0.8-1.2-0.6-1.8-1.1
				l0.1-0.1c0.9,0,1.8,0.1,2.7,0.4c2.4,0.3,4.6,1.3,7.1,1.3c1.4,0,3.1,0.1,3.8-1.3c0.1-0.8,0.3-1.6,0.4-2.3
				C58.8,48.8,59.6,47.6,59.5,46.3L59.5,46.3z M32.4,57.7l-0.3-0.3c0.2-0.3,0.6-0.1,0.8-0.3c0.7-0.3,1.4-0.4,2.1-0.3
				C34.3,57.5,33.3,57.6,32.4,57.7z M48.1,57.4c0.9,0.3,1.8,0.5,2.7,0.6c-0.1,0.3-0.7,0-0.6,0.5c-0.8-0.3-1.7-0.4-2.3-1.1
				C47.9,57.4,48,57.4,48.1,57.4L48.1,57.4z M24.5,46.6c0.1-0.5,0.3-0.9,0.6-1.3c0.6-0.3,1.4-0.3,2,0.1c0.2,0.1,0.3,0.3,0.4,0.5
				c0.1,0.4-0.1,0.9-0.4,1.1h-0.3c0-0.4,0-0.8,0.1-1.1c0-0.3-0.3-0.3-0.5-0.4c-0.4-0.1-0.8,0-1.1,0.3c-0.3,0.3-0.4,0.8-0.4,1.1
				c0.2,0.3,0,0.6,0.1,0.9L25,48C24.8,47.6,24.5,47.2,24.5,46.6L24.5,46.6z M25.7,47.4c0.4,0.3,0.9,0.1,1.3,0.3
				c0.1,0.3,0.1,0.6-0.1,0.9c-0.4-0.1-0.9-0.1-1.2-0.4C25.8,47.8,25.7,47.6,25.7,47.4L25.7,47.4z M25.7,46.5c0.1-0.2,0-0.5,0.3-0.6
				c0.2-0.1,0.4-0.1,0.5,0.1c0,0.3-0.1,0.6-0.1,0.9C26,47,25.7,46.8,25.7,46.5L25.7,46.5z M37.4,54.6c-0.1-0.8,0.2-1.7,0.8-2.3
				c0.4-0.1,0.8-0.1,1.1,0.1c-0.6,0.2-1.5,0.3-1.6,1.1c0,0.3-0.1,0.5,0.1,0.8c0.3,0.5,0.9,0.3,1.3,0.6c0,0.1-0.1,0.3-0.3,0.3
				C38.2,55.1,37.8,54.9,37.4,54.6z M36.5,56.4c0.6-0.3,1.2-0.8,1.9-0.6C37.9,56.2,37.2,56.4,36.5,56.4z M38.9,56.6
				c-0.4,0.8-0.8,1.6-1.2,2.4c-0.1,0.1-0.3,0.1-0.4,0.2c0-0.4,0.4-0.6,0.5-0.9c0.5-0.7,0.7-1.4,1.3-2.1
				C39.2,56.3,38.9,56.4,38.9,56.6L38.9,56.6z M39.5,55.2v0.1h-0.1L39.5,55.2L39.5,55.2C39.6,55.1,39.5,55.1,39.5,55.2L39.5,55.2z
				 M39.3,54.5c-0.4-0.1-0.8-0.2-1.2-0.3c-0.3-0.3,0-0.5,0-0.8c0.3-0.6,1.3-0.8,1.8-0.3C39.8,53.6,39.6,54.1,39.3,54.5z M39.8,54.5
				c0.1-0.4,0.2-0.8,0.4-1.1C40.2,53.8,40.1,54.1,39.8,54.5L39.8,54.5z M40.1,52.4c-0.3-0.1-0.5-0.5-0.8-0.5c0.3-0.1,0.6-0.1,0.9,0
				C40.3,52.1,40.1,52.3,40.1,52.4L40.1,52.4z M40.5,53.2L40.5,53.2v-0.3l0,0V53.2z M40.5,54.3c0-0.1,0.1-0.3,0.1-0.4
				c0.1-0.1,0.3,0.1,0.3,0.2C40.7,54.3,40.6,54.4,40.5,54.3z M40.8,52.8c0.1-0.3,0.2-0.6,0.4-0.9c0.3,0,0.4,0,0.7,0.1
				c0.1,0.5,0.7,1.2,0,1.6c-0.3,0.1-0.6,0.3-0.8,0.1C40.8,53.5,40.7,53.1,40.8,52.8L40.8,52.8z M42.7,52.1c-0.1-0.3,0.3-0.1,0.3-0.1
				l0.8,0.1C43.4,51.9,42.9,52.9,42.7,52.1z M43.9,52.4c-0.3,0.1-0.5,0.4-0.8,0.5C43.2,52.6,43.6,52.4,43.9,52.4z M42.9,55.5
				c0,0.1,0,0.1-0.1,0.2l-0.6-0.4C42.5,55.2,42.8,55.3,42.9,55.5L42.9,55.5z M42.2,54.7c0.1-0.1,0.2-0.1,0.3,0H42.2z M41.8,54.3
				c0.1-0.1,0.3-0.4,0.4-0.4c0,0.1,0,0.1,0.1,0.1C42.2,54.2,42,54.3,41.8,54.3z M41.3,54.3h-0.1l0.1-0.1
				C41.4,54.2,41.3,54.3,41.3,54.3L41.3,54.3z M41.3,55.3c0.3-0.4,0.6,0.2,0.8,0.5c0.4,0.6,1.3,1.1,1,1.8c-0.5,0.4-1.2,0-1.8,0.4
				c-0.3,0-0.8,0.1-0.9-0.3C40.7,56.9,41,56,41.3,55.3z M40.7,55.7l0.1-0.2c-0.2,0.6-0.5,1.3-0.8,1.8C39.8,56.7,40.5,56.2,40.7,55.7
				z M41.8,58.8c-0.5,0-1.2,0.3-1.6-0.1c0-0.2-0.2-0.3-0.2-0.5c0.4-0.1,0.8,0.3,1.1,0c0.6-0.1,1.2,0,1.8,0.1
				c0.3,0.1,0.7-0.4,0.8,0.1C43.4,59.1,42.4,58.5,41.8,58.8L41.8,58.8z M43.4,56.7c0,0.3,0.3,0.4,0.1,0.6
				C43.4,57.1,43.4,56.9,43.4,56.7z M44.1,58.2L44,58.3c-0.1-0.1-0.1-0.4-0.1-0.5C44.1,57.9,44.2,58,44.1,58.2z M45.4,58.8
				c0,0.1-0.1,0.1-0.2,0c-0.6-0.9-1.2-2-1.6-3h0.1C44.3,56.8,44.8,57.9,45.4,58.8z M46.2,56.5c-0.1,0-0.1,0.1-0.1,0.1
				c-0.6-0.1-1.3-0.3-1.8-0.8v-0.1C45.1,55.9,45.7,56.1,46.2,56.5z M45.6,53.1c0.3,0.1,0.3,0.4,0.4,0.6c-0.1,0.8-0.8,1.5-1.6,1.4
				l0,0l-0.3-0.1c0.6,0,1.2-0.3,1.5-0.8V53.1z M45.1,53c0.2,0.3,0.3,0.7,0.3,1.1c-0.3,0.5-0.8,0.5-1.2,0.6c-0.2,0-0.4-0.1-0.6-0.2
				c0-0.1,0-0.2-0.1-0.3c0.1-0.3-0.6-0.6-0.1-0.9S44.6,52.1,45.1,53L45.1,53z M57.8,51.2c-0.2,0.3,0,0.6-0.3,0.9
				c0,0.4-0.4,0.7-0.7,0.9c-3,0.6-5.9-0.4-8.8-0.9c-4.2-0.9-8.6-1.1-12.8-0.2c-1.9,0.4-3.8,0.8-5.7,1.3c-1.1,0.3-2.3,0.3-3.5,0
				c-0.9-0.4-0.5-1.6-0.8-2.4c0-0.6-0.1-1.1-0.2-1.8c-0.1-0.2-0.1-0.4-0.1-0.6c0.4,0.1,0.8,0.3,1.1,0.4c2.1,0.4,4-0.3,5.9-0.6
				c1.9-0.4,3.9-0.7,5.8-0.9c2.2-0.1,4.5-0.1,6.7,0.2c0.7,0,1.3,0.2,2,0.3c1.4,0.2,2.7,0.6,4.2,0.6c0.3,0.1,0.5,0.1,0.8,0.1
				c2.3,0.4,4.8,1,6.9,0C58.2,49.4,58,50.3,57.8,51.2L57.8,51.2z M57.1,48.1c0,0.4-0.4,0.3-0.6,0.4h-0.6c-0.1-0.3-0.1-0.4-0.1-0.7
				C56.2,47.9,56.6,48,57.1,48.1L57.1,48.1z M56.8,47.5c0.3-0.3-0.1-1.9,0.7-0.8c0,0.2,0,0.5-0.2,0.6C57.1,47.4,57,47.6,56.8,47.5
				L56.8,47.5z M58.8,47.2c-0.2,0.4-0.6,0.8-1.1,0.9c0-0.6,0.6-1,0.4-1.7c-0.4-0.4-1-0.7-1.6-0.5c-0.3,0.1-0.1,0.4-0.2,0.6l-0.1,0.8
				c-0.5,0-0.5-0.4-0.7-0.8c0-0.6,0.3-1.1,0.8-1.3c0.4-0.2,1-0.2,1.5,0.1c0.3,0.1,0.6,0.3,0.8,0.5C59,46.1,58.9,46.8,58.8,47.2
				L58.8,47.2z"/>
			<polygon id="Rectangle-path" points="89.7,37.4 292.1,37.4 292.1,38.2 89.7,38.2 			"/>
		</g>
	</g>
</g>
</svg>
